G04 #@! TF.GenerationSoftware,KiCad,Pcbnew,5.0.2+dfsg1-1*
G04 #@! TF.CreationDate,2019-07-14T15:39:51+02:00*
G04 #@! TF.ProjectId,classD,636c6173-7344-42e6-9b69-6361645f7063,1.0*
G04 #@! TF.SameCoordinates,Original*
G04 #@! TF.FileFunction,Soldermask,Bot*
G04 #@! TF.FilePolarity,Negative*
%FSLAX46Y46*%
G04 Gerber Fmt 4.6, Leading zero omitted, Abs format (unit mm)*
G04 Created by KiCad (PCBNEW 5.0.2+dfsg1-1) date So 14 Jul 2019 15:39:51 CEST*
%MOMM*%
%LPD*%
G01*
G04 APERTURE LIST*
%ADD10C,0.100000*%
G04 APERTURE END LIST*
D10*
G36*
X226435256Y-106341298D02*
X226541579Y-106362447D01*
X226842042Y-106486903D01*
X226974668Y-106575521D01*
X227112454Y-106667587D01*
X227342413Y-106897546D01*
X227342415Y-106897549D01*
X227452323Y-107062037D01*
X227523098Y-107167960D01*
X227542718Y-107215328D01*
X227647553Y-107468421D01*
X227711000Y-107787391D01*
X227711000Y-108112609D01*
X227647553Y-108431579D01*
X227581856Y-108590185D01*
X227542718Y-108684674D01*
X227523097Y-108732042D01*
X227385009Y-108938705D01*
X227342413Y-109002454D01*
X227112454Y-109232413D01*
X227112451Y-109232415D01*
X226842042Y-109413097D01*
X226541579Y-109537553D01*
X226435256Y-109558702D01*
X226222611Y-109601000D01*
X225897389Y-109601000D01*
X225684744Y-109558702D01*
X225578421Y-109537553D01*
X225277958Y-109413097D01*
X225007549Y-109232415D01*
X225007546Y-109232413D01*
X224777587Y-109002454D01*
X224734991Y-108938705D01*
X224596903Y-108732042D01*
X224577283Y-108684674D01*
X224538144Y-108590185D01*
X224472447Y-108431579D01*
X224409000Y-108112609D01*
X224409000Y-107787391D01*
X224472447Y-107468421D01*
X224577282Y-107215328D01*
X224596902Y-107167960D01*
X224667678Y-107062037D01*
X224777585Y-106897549D01*
X224777587Y-106897546D01*
X225007546Y-106667587D01*
X225145332Y-106575521D01*
X225277958Y-106486903D01*
X225578421Y-106362447D01*
X225684744Y-106341298D01*
X225897389Y-106299000D01*
X226222611Y-106299000D01*
X226435256Y-106341298D01*
X226435256Y-106341298D01*
G37*
G36*
X135630256Y-106341298D02*
X135736579Y-106362447D01*
X136037042Y-106486903D01*
X136169668Y-106575521D01*
X136307454Y-106667587D01*
X136537413Y-106897546D01*
X136537415Y-106897549D01*
X136647323Y-107062037D01*
X136718098Y-107167960D01*
X136737718Y-107215328D01*
X136842553Y-107468421D01*
X136906000Y-107787391D01*
X136906000Y-108112609D01*
X136842553Y-108431579D01*
X136776856Y-108590185D01*
X136737718Y-108684674D01*
X136718097Y-108732042D01*
X136580009Y-108938705D01*
X136537413Y-109002454D01*
X136307454Y-109232413D01*
X136307451Y-109232415D01*
X136037042Y-109413097D01*
X135736579Y-109537553D01*
X135630256Y-109558702D01*
X135417611Y-109601000D01*
X135092389Y-109601000D01*
X134879744Y-109558702D01*
X134773421Y-109537553D01*
X134472958Y-109413097D01*
X134202549Y-109232415D01*
X134202546Y-109232413D01*
X133972587Y-109002454D01*
X133929991Y-108938705D01*
X133791903Y-108732042D01*
X133772283Y-108684674D01*
X133733144Y-108590185D01*
X133667447Y-108431579D01*
X133604000Y-108112609D01*
X133604000Y-107787391D01*
X133667447Y-107468421D01*
X133772282Y-107215328D01*
X133791902Y-107167960D01*
X133862678Y-107062037D01*
X133972585Y-106897549D01*
X133972587Y-106897546D01*
X134202546Y-106667587D01*
X134340332Y-106575521D01*
X134472958Y-106486903D01*
X134773421Y-106362447D01*
X134879744Y-106341298D01*
X135092389Y-106299000D01*
X135417611Y-106299000D01*
X135630256Y-106341298D01*
X135630256Y-106341298D01*
G37*
G36*
X183867527Y-106438736D02*
X183967410Y-106458604D01*
X184249674Y-106575521D01*
X184503705Y-106745259D01*
X184719741Y-106961295D01*
X184889479Y-107215326D01*
X185006396Y-107497590D01*
X185066000Y-107797240D01*
X185066000Y-108102760D01*
X185006396Y-108402410D01*
X184889479Y-108684674D01*
X184719741Y-108938705D01*
X184503705Y-109154741D01*
X184249674Y-109324479D01*
X183967410Y-109441396D01*
X183867527Y-109461264D01*
X183667762Y-109501000D01*
X183362238Y-109501000D01*
X183162473Y-109461264D01*
X183062590Y-109441396D01*
X182780326Y-109324479D01*
X182526295Y-109154741D01*
X182310259Y-108938705D01*
X182140521Y-108684674D01*
X182023604Y-108402410D01*
X181964000Y-108102760D01*
X181964000Y-107797240D01*
X182023604Y-107497590D01*
X182140521Y-107215326D01*
X182310259Y-106961295D01*
X182526295Y-106745259D01*
X182780326Y-106575521D01*
X183062590Y-106458604D01*
X183162473Y-106438736D01*
X183362238Y-106399000D01*
X183667762Y-106399000D01*
X183867527Y-106438736D01*
X183867527Y-106438736D01*
G37*
G36*
X179986000Y-109501000D02*
X176884000Y-109501000D01*
X176884000Y-106399000D01*
X179986000Y-106399000D01*
X179986000Y-109501000D01*
X179986000Y-109501000D01*
G37*
G36*
X216010442Y-107055518D02*
X216076627Y-107062037D01*
X216189853Y-107096384D01*
X216246467Y-107113557D01*
X216348246Y-107167960D01*
X216402991Y-107197222D01*
X216425053Y-107215328D01*
X216540186Y-107309814D01*
X216623448Y-107411271D01*
X216652778Y-107447009D01*
X216652779Y-107447011D01*
X216736443Y-107603533D01*
X216736443Y-107603534D01*
X216787963Y-107773373D01*
X216805359Y-107950000D01*
X216787963Y-108126627D01*
X216753616Y-108239853D01*
X216736443Y-108296467D01*
X216679815Y-108402409D01*
X216652778Y-108452991D01*
X216623448Y-108488729D01*
X216540186Y-108590186D01*
X216438729Y-108673448D01*
X216402991Y-108702778D01*
X216402989Y-108702779D01*
X216246467Y-108786443D01*
X216189853Y-108803616D01*
X216076627Y-108837963D01*
X216010442Y-108844482D01*
X215944260Y-108851000D01*
X215855740Y-108851000D01*
X215789558Y-108844482D01*
X215723373Y-108837963D01*
X215610147Y-108803616D01*
X215553533Y-108786443D01*
X215397011Y-108702779D01*
X215397009Y-108702778D01*
X215361271Y-108673448D01*
X215259814Y-108590186D01*
X215176552Y-108488729D01*
X215147222Y-108452991D01*
X215120185Y-108402409D01*
X215063557Y-108296467D01*
X215046384Y-108239853D01*
X215012037Y-108126627D01*
X214994641Y-107950000D01*
X215012037Y-107773373D01*
X215063557Y-107603534D01*
X215063557Y-107603533D01*
X215147221Y-107447011D01*
X215147222Y-107447009D01*
X215176552Y-107411271D01*
X215259814Y-107309814D01*
X215374947Y-107215328D01*
X215397009Y-107197222D01*
X215451754Y-107167960D01*
X215553533Y-107113557D01*
X215610147Y-107096384D01*
X215723373Y-107062037D01*
X215789558Y-107055518D01*
X215855740Y-107049000D01*
X215944260Y-107049000D01*
X216010442Y-107055518D01*
X216010442Y-107055518D01*
G37*
G36*
X219341000Y-108851000D02*
X217539000Y-108851000D01*
X217539000Y-107049000D01*
X219341000Y-107049000D01*
X219341000Y-108851000D01*
X219341000Y-108851000D01*
G37*
G36*
X217896677Y-100091465D02*
X217934364Y-100102898D01*
X217969103Y-100121466D01*
X217999548Y-100146452D01*
X218024534Y-100176897D01*
X218043102Y-100211636D01*
X218054535Y-100249323D01*
X218059000Y-100294661D01*
X218059000Y-101381339D01*
X218054535Y-101426677D01*
X218043102Y-101464364D01*
X218024534Y-101499103D01*
X217999548Y-101529548D01*
X217969103Y-101554534D01*
X217934364Y-101573102D01*
X217896677Y-101584535D01*
X217851339Y-101589000D01*
X217014661Y-101589000D01*
X216969323Y-101584535D01*
X216931636Y-101573102D01*
X216896897Y-101554534D01*
X216866452Y-101529548D01*
X216841466Y-101499103D01*
X216822898Y-101464364D01*
X216811465Y-101426677D01*
X216807000Y-101381339D01*
X216807000Y-100294661D01*
X216811465Y-100249323D01*
X216822898Y-100211636D01*
X216841466Y-100176897D01*
X216866452Y-100146452D01*
X216896897Y-100121466D01*
X216931636Y-100102898D01*
X216969323Y-100091465D01*
X217014661Y-100087000D01*
X217851339Y-100087000D01*
X217896677Y-100091465D01*
X217896677Y-100091465D01*
G37*
G36*
X215846677Y-100091465D02*
X215884364Y-100102898D01*
X215919103Y-100121466D01*
X215949548Y-100146452D01*
X215974534Y-100176897D01*
X215993102Y-100211636D01*
X216004535Y-100249323D01*
X216009000Y-100294661D01*
X216009000Y-101381339D01*
X216004535Y-101426677D01*
X215993102Y-101464364D01*
X215974534Y-101499103D01*
X215949548Y-101529548D01*
X215919103Y-101554534D01*
X215884364Y-101573102D01*
X215846677Y-101584535D01*
X215801339Y-101589000D01*
X214964661Y-101589000D01*
X214919323Y-101584535D01*
X214881636Y-101573102D01*
X214846897Y-101554534D01*
X214816452Y-101529548D01*
X214791466Y-101499103D01*
X214772898Y-101464364D01*
X214761465Y-101426677D01*
X214757000Y-101381339D01*
X214757000Y-100294661D01*
X214761465Y-100249323D01*
X214772898Y-100211636D01*
X214791466Y-100176897D01*
X214816452Y-100146452D01*
X214846897Y-100121466D01*
X214881636Y-100102898D01*
X214919323Y-100091465D01*
X214964661Y-100087000D01*
X215801339Y-100087000D01*
X215846677Y-100091465D01*
X215846677Y-100091465D01*
G37*
G36*
X151703228Y-99511703D02*
X151858100Y-99575853D01*
X151997481Y-99668985D01*
X152116015Y-99787519D01*
X152209147Y-99926900D01*
X152273297Y-100081772D01*
X152306000Y-100246184D01*
X152306000Y-100413816D01*
X152273297Y-100578228D01*
X152209147Y-100733100D01*
X152116015Y-100872481D01*
X151997481Y-100991015D01*
X151858100Y-101084147D01*
X151703228Y-101148297D01*
X151538816Y-101181000D01*
X151371184Y-101181000D01*
X151206772Y-101148297D01*
X151051900Y-101084147D01*
X150912519Y-100991015D01*
X150793985Y-100872481D01*
X150700853Y-100733100D01*
X150636703Y-100578228D01*
X150604000Y-100413816D01*
X150604000Y-100246184D01*
X150636703Y-100081772D01*
X150700853Y-99926900D01*
X150793985Y-99787519D01*
X150912519Y-99668985D01*
X151051900Y-99575853D01*
X151206772Y-99511703D01*
X151371184Y-99479000D01*
X151538816Y-99479000D01*
X151703228Y-99511703D01*
X151703228Y-99511703D01*
G37*
G36*
X148806000Y-101181000D02*
X147104000Y-101181000D01*
X147104000Y-99479000D01*
X148806000Y-99479000D01*
X148806000Y-101181000D01*
X148806000Y-101181000D01*
G37*
G36*
X177602635Y-96852019D02*
X177783903Y-96888075D01*
X178011571Y-96982378D01*
X178215542Y-97118668D01*
X178216469Y-97119287D01*
X178390713Y-97293531D01*
X178390715Y-97293534D01*
X178527622Y-97498429D01*
X178621925Y-97726097D01*
X178670000Y-97967787D01*
X178670000Y-98214213D01*
X178621925Y-98455903D01*
X178527622Y-98683571D01*
X178445817Y-98806000D01*
X178390713Y-98888469D01*
X178216469Y-99062713D01*
X178216466Y-99062715D01*
X178011571Y-99199622D01*
X177783903Y-99293925D01*
X177602635Y-99329981D01*
X177542214Y-99342000D01*
X177295786Y-99342000D01*
X177235365Y-99329981D01*
X177054097Y-99293925D01*
X176826429Y-99199622D01*
X176621534Y-99062715D01*
X176621531Y-99062713D01*
X176447287Y-98888469D01*
X176392183Y-98806000D01*
X176310378Y-98683571D01*
X176216075Y-98455903D01*
X176168000Y-98214213D01*
X176168000Y-97967787D01*
X176216075Y-97726097D01*
X176310378Y-97498429D01*
X176447285Y-97293534D01*
X176447287Y-97293531D01*
X176621531Y-97119287D01*
X176622458Y-97118668D01*
X176826429Y-96982378D01*
X177054097Y-96888075D01*
X177235364Y-96852019D01*
X177295786Y-96840000D01*
X177542214Y-96840000D01*
X177602635Y-96852019D01*
X177602635Y-96852019D01*
G37*
G36*
X222838677Y-97558465D02*
X222876364Y-97569898D01*
X222911103Y-97588466D01*
X222941548Y-97613452D01*
X222966534Y-97643897D01*
X222985102Y-97678636D01*
X222996535Y-97716323D01*
X223001000Y-97761661D01*
X223001000Y-98598339D01*
X222996535Y-98643677D01*
X222985102Y-98681364D01*
X222966534Y-98716103D01*
X222941548Y-98746548D01*
X222911103Y-98771534D01*
X222876364Y-98790102D01*
X222838677Y-98801535D01*
X222793339Y-98806000D01*
X221706661Y-98806000D01*
X221661323Y-98801535D01*
X221623636Y-98790102D01*
X221588897Y-98771534D01*
X221558452Y-98746548D01*
X221533466Y-98716103D01*
X221514898Y-98681364D01*
X221503465Y-98643677D01*
X221499000Y-98598339D01*
X221499000Y-97761661D01*
X221503465Y-97716323D01*
X221514898Y-97678636D01*
X221533466Y-97643897D01*
X221558452Y-97613452D01*
X221588897Y-97588466D01*
X221623636Y-97569898D01*
X221661323Y-97558465D01*
X221706661Y-97554000D01*
X222793339Y-97554000D01*
X222838677Y-97558465D01*
X222838677Y-97558465D01*
G37*
G36*
X220298677Y-97558465D02*
X220336364Y-97569898D01*
X220371103Y-97588466D01*
X220401548Y-97613452D01*
X220426534Y-97643897D01*
X220445102Y-97678636D01*
X220456535Y-97716323D01*
X220461000Y-97761661D01*
X220461000Y-98598339D01*
X220456535Y-98643677D01*
X220445102Y-98681364D01*
X220426534Y-98716103D01*
X220401548Y-98746548D01*
X220371103Y-98771534D01*
X220336364Y-98790102D01*
X220298677Y-98801535D01*
X220253339Y-98806000D01*
X219166661Y-98806000D01*
X219121323Y-98801535D01*
X219083636Y-98790102D01*
X219048897Y-98771534D01*
X219018452Y-98746548D01*
X218993466Y-98716103D01*
X218974898Y-98681364D01*
X218963465Y-98643677D01*
X218959000Y-98598339D01*
X218959000Y-97761661D01*
X218963465Y-97716323D01*
X218974898Y-97678636D01*
X218993466Y-97643897D01*
X219018452Y-97613452D01*
X219048897Y-97588466D01*
X219083636Y-97569898D01*
X219121323Y-97558465D01*
X219166661Y-97554000D01*
X220253339Y-97554000D01*
X220298677Y-97558465D01*
X220298677Y-97558465D01*
G37*
G36*
X225378677Y-97558465D02*
X225416364Y-97569898D01*
X225451103Y-97588466D01*
X225481548Y-97613452D01*
X225506534Y-97643897D01*
X225525102Y-97678636D01*
X225536535Y-97716323D01*
X225541000Y-97761661D01*
X225541000Y-98598339D01*
X225536535Y-98643677D01*
X225525102Y-98681364D01*
X225506534Y-98716103D01*
X225481548Y-98746548D01*
X225451103Y-98771534D01*
X225416364Y-98790102D01*
X225378677Y-98801535D01*
X225333339Y-98806000D01*
X224246661Y-98806000D01*
X224201323Y-98801535D01*
X224163636Y-98790102D01*
X224128897Y-98771534D01*
X224098452Y-98746548D01*
X224073466Y-98716103D01*
X224054898Y-98681364D01*
X224043465Y-98643677D01*
X224039000Y-98598339D01*
X224039000Y-97761661D01*
X224043465Y-97716323D01*
X224054898Y-97678636D01*
X224073466Y-97643897D01*
X224098452Y-97613452D01*
X224128897Y-97588466D01*
X224163636Y-97569898D01*
X224201323Y-97558465D01*
X224246661Y-97554000D01*
X225333339Y-97554000D01*
X225378677Y-97558465D01*
X225378677Y-97558465D01*
G37*
G36*
X217887677Y-96535465D02*
X217925364Y-96546898D01*
X217960103Y-96565466D01*
X217990548Y-96590452D01*
X218015534Y-96620897D01*
X218034102Y-96655636D01*
X218045535Y-96693323D01*
X218050000Y-96738661D01*
X218050000Y-97825339D01*
X218045535Y-97870677D01*
X218034102Y-97908364D01*
X218015534Y-97943103D01*
X217990548Y-97973548D01*
X217960103Y-97998534D01*
X217925364Y-98017102D01*
X217887677Y-98028535D01*
X217842339Y-98033000D01*
X217005661Y-98033000D01*
X216960323Y-98028535D01*
X216922636Y-98017102D01*
X216887897Y-97998534D01*
X216857452Y-97973548D01*
X216832466Y-97943103D01*
X216813898Y-97908364D01*
X216802465Y-97870677D01*
X216798000Y-97825339D01*
X216798000Y-96738661D01*
X216802465Y-96693323D01*
X216813898Y-96655636D01*
X216832466Y-96620897D01*
X216857452Y-96590452D01*
X216887897Y-96565466D01*
X216922636Y-96546898D01*
X216960323Y-96535465D01*
X217005661Y-96531000D01*
X217842339Y-96531000D01*
X217887677Y-96535465D01*
X217887677Y-96535465D01*
G37*
G36*
X215837677Y-96535465D02*
X215875364Y-96546898D01*
X215910103Y-96565466D01*
X215940548Y-96590452D01*
X215965534Y-96620897D01*
X215984102Y-96655636D01*
X215995535Y-96693323D01*
X216000000Y-96738661D01*
X216000000Y-97825339D01*
X215995535Y-97870677D01*
X215984102Y-97908364D01*
X215965534Y-97943103D01*
X215940548Y-97973548D01*
X215910103Y-97998534D01*
X215875364Y-98017102D01*
X215837677Y-98028535D01*
X215792339Y-98033000D01*
X214955661Y-98033000D01*
X214910323Y-98028535D01*
X214872636Y-98017102D01*
X214837897Y-97998534D01*
X214807452Y-97973548D01*
X214782466Y-97943103D01*
X214763898Y-97908364D01*
X214752465Y-97870677D01*
X214748000Y-97825339D01*
X214748000Y-96738661D01*
X214752465Y-96693323D01*
X214763898Y-96655636D01*
X214782466Y-96620897D01*
X214807452Y-96590452D01*
X214837897Y-96565466D01*
X214872636Y-96546898D01*
X214910323Y-96535465D01*
X214955661Y-96531000D01*
X215792339Y-96531000D01*
X215837677Y-96535465D01*
X215837677Y-96535465D01*
G37*
G36*
X220298677Y-95508465D02*
X220336364Y-95519898D01*
X220371103Y-95538466D01*
X220401548Y-95563452D01*
X220426534Y-95593897D01*
X220445102Y-95628636D01*
X220456535Y-95666323D01*
X220461000Y-95711661D01*
X220461000Y-96548339D01*
X220456535Y-96593677D01*
X220445102Y-96631364D01*
X220426534Y-96666103D01*
X220401548Y-96696548D01*
X220371103Y-96721534D01*
X220336364Y-96740102D01*
X220298677Y-96751535D01*
X220253339Y-96756000D01*
X219166661Y-96756000D01*
X219121323Y-96751535D01*
X219083636Y-96740102D01*
X219048897Y-96721534D01*
X219018452Y-96696548D01*
X218993466Y-96666103D01*
X218974898Y-96631364D01*
X218963465Y-96593677D01*
X218959000Y-96548339D01*
X218959000Y-95711661D01*
X218963465Y-95666323D01*
X218974898Y-95628636D01*
X218993466Y-95593897D01*
X219018452Y-95563452D01*
X219048897Y-95538466D01*
X219083636Y-95519898D01*
X219121323Y-95508465D01*
X219166661Y-95504000D01*
X220253339Y-95504000D01*
X220298677Y-95508465D01*
X220298677Y-95508465D01*
G37*
G36*
X222838677Y-95508465D02*
X222876364Y-95519898D01*
X222911103Y-95538466D01*
X222941548Y-95563452D01*
X222966534Y-95593897D01*
X222985102Y-95628636D01*
X222996535Y-95666323D01*
X223001000Y-95711661D01*
X223001000Y-96548339D01*
X222996535Y-96593677D01*
X222985102Y-96631364D01*
X222966534Y-96666103D01*
X222941548Y-96696548D01*
X222911103Y-96721534D01*
X222876364Y-96740102D01*
X222838677Y-96751535D01*
X222793339Y-96756000D01*
X221706661Y-96756000D01*
X221661323Y-96751535D01*
X221623636Y-96740102D01*
X221588897Y-96721534D01*
X221558452Y-96696548D01*
X221533466Y-96666103D01*
X221514898Y-96631364D01*
X221503465Y-96593677D01*
X221499000Y-96548339D01*
X221499000Y-95711661D01*
X221503465Y-95666323D01*
X221514898Y-95628636D01*
X221533466Y-95593897D01*
X221558452Y-95563452D01*
X221588897Y-95538466D01*
X221623636Y-95519898D01*
X221661323Y-95508465D01*
X221706661Y-95504000D01*
X222793339Y-95504000D01*
X222838677Y-95508465D01*
X222838677Y-95508465D01*
G37*
G36*
X225378677Y-95508465D02*
X225416364Y-95519898D01*
X225451103Y-95538466D01*
X225481548Y-95563452D01*
X225506534Y-95593897D01*
X225525102Y-95628636D01*
X225536535Y-95666323D01*
X225541000Y-95711661D01*
X225541000Y-96548339D01*
X225536535Y-96593677D01*
X225525102Y-96631364D01*
X225506534Y-96666103D01*
X225481548Y-96696548D01*
X225451103Y-96721534D01*
X225416364Y-96740102D01*
X225378677Y-96751535D01*
X225333339Y-96756000D01*
X224246661Y-96756000D01*
X224201323Y-96751535D01*
X224163636Y-96740102D01*
X224128897Y-96721534D01*
X224098452Y-96696548D01*
X224073466Y-96666103D01*
X224054898Y-96631364D01*
X224043465Y-96593677D01*
X224039000Y-96548339D01*
X224039000Y-95711661D01*
X224043465Y-95666323D01*
X224054898Y-95628636D01*
X224073466Y-95593897D01*
X224098452Y-95563452D01*
X224128897Y-95538466D01*
X224163636Y-95519898D01*
X224201323Y-95508465D01*
X224246661Y-95504000D01*
X225333339Y-95504000D01*
X225378677Y-95508465D01*
X225378677Y-95508465D01*
G37*
G36*
X144393228Y-93796703D02*
X144548100Y-93860853D01*
X144687481Y-93953985D01*
X144806015Y-94072519D01*
X144899147Y-94211900D01*
X144963297Y-94366772D01*
X144996000Y-94531184D01*
X144996000Y-94698816D01*
X144963297Y-94863228D01*
X144899147Y-95018100D01*
X144806015Y-95157481D01*
X144687481Y-95276015D01*
X144548100Y-95369147D01*
X144393228Y-95433297D01*
X144228816Y-95466000D01*
X144061184Y-95466000D01*
X143896772Y-95433297D01*
X143741900Y-95369147D01*
X143602519Y-95276015D01*
X143483985Y-95157481D01*
X143390853Y-95018100D01*
X143326703Y-94863228D01*
X143294000Y-94698816D01*
X143294000Y-94531184D01*
X143326703Y-94366772D01*
X143390853Y-94211900D01*
X143483985Y-94072519D01*
X143602519Y-93953985D01*
X143741900Y-93860853D01*
X143896772Y-93796703D01*
X144061184Y-93764000D01*
X144228816Y-93764000D01*
X144393228Y-93796703D01*
X144393228Y-93796703D01*
G37*
G36*
X178670000Y-94342000D02*
X176168000Y-94342000D01*
X176168000Y-91840000D01*
X178670000Y-91840000D01*
X178670000Y-94342000D01*
X178670000Y-94342000D01*
G37*
G36*
X144996000Y-91966000D02*
X143294000Y-91966000D01*
X143294000Y-90264000D01*
X144996000Y-90264000D01*
X144996000Y-91966000D01*
X144996000Y-91966000D01*
G37*
G36*
X161395109Y-91077397D02*
X161432300Y-91084795D01*
X161502366Y-91113817D01*
X161502367Y-91113818D01*
X161565426Y-91155953D01*
X161619047Y-91209574D01*
X161619049Y-91209577D01*
X161661183Y-91272634D01*
X161690205Y-91342700D01*
X161697603Y-91379891D01*
X161705000Y-91417079D01*
X161705000Y-91492921D01*
X161699308Y-91521534D01*
X161690205Y-91567300D01*
X161661183Y-91637366D01*
X161661182Y-91637367D01*
X161619047Y-91700426D01*
X161565426Y-91754047D01*
X161565423Y-91754049D01*
X161502366Y-91796183D01*
X161432300Y-91825205D01*
X161395109Y-91832603D01*
X161357921Y-91840000D01*
X161282079Y-91840000D01*
X161244890Y-91832602D01*
X161207700Y-91825205D01*
X161137634Y-91796183D01*
X161074577Y-91754049D01*
X161074574Y-91754047D01*
X161020953Y-91700426D01*
X160978818Y-91637367D01*
X160978817Y-91637366D01*
X160949795Y-91567300D01*
X160940692Y-91521534D01*
X160935000Y-91492921D01*
X160935000Y-91417079D01*
X160942397Y-91379891D01*
X160949795Y-91342700D01*
X160978817Y-91272634D01*
X161020951Y-91209577D01*
X161020953Y-91209574D01*
X161074574Y-91155953D01*
X161137633Y-91113818D01*
X161137634Y-91113817D01*
X161207700Y-91084795D01*
X161244890Y-91077398D01*
X161282079Y-91070000D01*
X161357921Y-91070000D01*
X161395109Y-91077397D01*
X161395109Y-91077397D01*
G37*
G36*
X158795109Y-91077397D02*
X158832300Y-91084795D01*
X158902366Y-91113817D01*
X158902367Y-91113818D01*
X158965426Y-91155953D01*
X159019047Y-91209574D01*
X159019049Y-91209577D01*
X159061183Y-91272634D01*
X159090205Y-91342700D01*
X159097603Y-91379891D01*
X159105000Y-91417079D01*
X159105000Y-91492921D01*
X159099308Y-91521534D01*
X159090205Y-91567300D01*
X159061183Y-91637366D01*
X159061182Y-91637367D01*
X159019047Y-91700426D01*
X158965426Y-91754047D01*
X158965423Y-91754049D01*
X158902366Y-91796183D01*
X158832300Y-91825205D01*
X158795109Y-91832603D01*
X158757921Y-91840000D01*
X158682079Y-91840000D01*
X158644890Y-91832602D01*
X158607700Y-91825205D01*
X158537634Y-91796183D01*
X158474577Y-91754049D01*
X158474574Y-91754047D01*
X158420953Y-91700426D01*
X158378818Y-91637367D01*
X158378817Y-91637366D01*
X158349795Y-91567300D01*
X158340692Y-91521534D01*
X158335000Y-91492921D01*
X158335000Y-91417079D01*
X158342397Y-91379891D01*
X158349795Y-91342700D01*
X158378817Y-91272634D01*
X158420951Y-91209577D01*
X158420953Y-91209574D01*
X158474574Y-91155953D01*
X158537633Y-91113818D01*
X158537634Y-91113817D01*
X158607700Y-91084795D01*
X158644890Y-91077398D01*
X158682079Y-91070000D01*
X158757921Y-91070000D01*
X158795109Y-91077397D01*
X158795109Y-91077397D01*
G37*
G36*
X160095109Y-91077397D02*
X160132300Y-91084795D01*
X160202366Y-91113817D01*
X160202367Y-91113818D01*
X160265426Y-91155953D01*
X160319047Y-91209574D01*
X160319049Y-91209577D01*
X160361183Y-91272634D01*
X160390205Y-91342700D01*
X160397603Y-91379891D01*
X160405000Y-91417079D01*
X160405000Y-91492921D01*
X160399308Y-91521534D01*
X160390205Y-91567300D01*
X160361183Y-91637366D01*
X160361182Y-91637367D01*
X160319047Y-91700426D01*
X160265426Y-91754047D01*
X160265423Y-91754049D01*
X160202366Y-91796183D01*
X160132300Y-91825205D01*
X160095109Y-91832603D01*
X160057921Y-91840000D01*
X159982079Y-91840000D01*
X159944890Y-91832602D01*
X159907700Y-91825205D01*
X159837634Y-91796183D01*
X159774577Y-91754049D01*
X159774574Y-91754047D01*
X159720953Y-91700426D01*
X159678818Y-91637367D01*
X159678817Y-91637366D01*
X159649795Y-91567300D01*
X159640692Y-91521534D01*
X159635000Y-91492921D01*
X159635000Y-91417079D01*
X159642397Y-91379891D01*
X159649795Y-91342700D01*
X159678817Y-91272634D01*
X159720951Y-91209577D01*
X159720953Y-91209574D01*
X159774574Y-91155953D01*
X159837633Y-91113818D01*
X159837634Y-91113817D01*
X159907700Y-91084795D01*
X159944890Y-91077398D01*
X159982079Y-91070000D01*
X160057921Y-91070000D01*
X160095109Y-91077397D01*
X160095109Y-91077397D01*
G37*
G36*
X199708677Y-90058465D02*
X199746364Y-90069898D01*
X199781103Y-90088466D01*
X199811548Y-90113452D01*
X199836534Y-90143897D01*
X199855102Y-90178636D01*
X199866535Y-90216323D01*
X199871000Y-90261661D01*
X199871000Y-91348339D01*
X199866535Y-91393677D01*
X199855102Y-91431364D01*
X199836534Y-91466103D01*
X199811548Y-91496548D01*
X199781103Y-91521534D01*
X199746364Y-91540102D01*
X199708677Y-91551535D01*
X199663339Y-91556000D01*
X198826661Y-91556000D01*
X198781323Y-91551535D01*
X198743636Y-91540102D01*
X198708897Y-91521534D01*
X198678452Y-91496548D01*
X198653466Y-91466103D01*
X198634898Y-91431364D01*
X198623465Y-91393677D01*
X198619000Y-91348339D01*
X198619000Y-90261661D01*
X198623465Y-90216323D01*
X198634898Y-90178636D01*
X198653466Y-90143897D01*
X198678452Y-90113452D01*
X198708897Y-90088466D01*
X198743636Y-90069898D01*
X198781323Y-90058465D01*
X198826661Y-90054000D01*
X199663339Y-90054000D01*
X199708677Y-90058465D01*
X199708677Y-90058465D01*
G37*
G36*
X201758677Y-90058465D02*
X201796364Y-90069898D01*
X201831103Y-90088466D01*
X201861548Y-90113452D01*
X201886534Y-90143897D01*
X201905102Y-90178636D01*
X201916535Y-90216323D01*
X201921000Y-90261661D01*
X201921000Y-91348339D01*
X201916535Y-91393677D01*
X201905102Y-91431364D01*
X201886534Y-91466103D01*
X201861548Y-91496548D01*
X201831103Y-91521534D01*
X201796364Y-91540102D01*
X201758677Y-91551535D01*
X201713339Y-91556000D01*
X200876661Y-91556000D01*
X200831323Y-91551535D01*
X200793636Y-91540102D01*
X200758897Y-91521534D01*
X200728452Y-91496548D01*
X200703466Y-91466103D01*
X200684898Y-91431364D01*
X200673465Y-91393677D01*
X200669000Y-91348339D01*
X200669000Y-90261661D01*
X200673465Y-90216323D01*
X200684898Y-90178636D01*
X200703466Y-90143897D01*
X200728452Y-90113452D01*
X200758897Y-90088466D01*
X200793636Y-90069898D01*
X200831323Y-90058465D01*
X200876661Y-90054000D01*
X201713339Y-90054000D01*
X201758677Y-90058465D01*
X201758677Y-90058465D01*
G37*
G36*
X204423677Y-89938465D02*
X204461364Y-89949898D01*
X204496103Y-89968466D01*
X204526548Y-89993452D01*
X204551534Y-90023897D01*
X204570102Y-90058636D01*
X204581535Y-90096323D01*
X204586000Y-90141661D01*
X204586000Y-90978339D01*
X204581535Y-91023677D01*
X204570102Y-91061364D01*
X204551534Y-91096103D01*
X204526548Y-91126548D01*
X204496103Y-91151534D01*
X204461364Y-91170102D01*
X204423677Y-91181535D01*
X204378339Y-91186000D01*
X203291661Y-91186000D01*
X203246323Y-91181535D01*
X203208636Y-91170102D01*
X203173897Y-91151534D01*
X203143452Y-91126548D01*
X203118466Y-91096103D01*
X203099898Y-91061364D01*
X203088465Y-91023677D01*
X203084000Y-90978339D01*
X203084000Y-90141661D01*
X203088465Y-90096323D01*
X203099898Y-90058636D01*
X203118466Y-90023897D01*
X203143452Y-89993452D01*
X203173897Y-89968466D01*
X203208636Y-89949898D01*
X203246323Y-89938465D01*
X203291661Y-89934000D01*
X204378339Y-89934000D01*
X204423677Y-89938465D01*
X204423677Y-89938465D01*
G37*
G36*
X223786000Y-91071000D02*
X221984000Y-91071000D01*
X221984000Y-89269000D01*
X223786000Y-89269000D01*
X223786000Y-91071000D01*
X223786000Y-91071000D01*
G37*
G36*
X189945677Y-89811465D02*
X189983364Y-89822898D01*
X190018103Y-89841466D01*
X190048548Y-89866452D01*
X190073534Y-89896897D01*
X190092102Y-89931636D01*
X190103535Y-89969323D01*
X190108000Y-90014661D01*
X190108000Y-90851339D01*
X190103535Y-90896677D01*
X190092102Y-90934364D01*
X190073534Y-90969103D01*
X190048548Y-90999548D01*
X190018103Y-91024534D01*
X189983364Y-91043102D01*
X189945677Y-91054535D01*
X189900339Y-91059000D01*
X188813661Y-91059000D01*
X188768323Y-91054535D01*
X188730636Y-91043102D01*
X188695897Y-91024534D01*
X188665452Y-90999548D01*
X188640466Y-90969103D01*
X188621898Y-90934364D01*
X188610465Y-90896677D01*
X188606000Y-90851339D01*
X188606000Y-90014661D01*
X188610465Y-89969323D01*
X188621898Y-89931636D01*
X188640466Y-89896897D01*
X188665452Y-89866452D01*
X188695897Y-89841466D01*
X188730636Y-89822898D01*
X188768323Y-89811465D01*
X188813661Y-89807000D01*
X189900339Y-89807000D01*
X189945677Y-89811465D01*
X189945677Y-89811465D01*
G37*
G36*
X216488677Y-89811465D02*
X216526364Y-89822898D01*
X216561103Y-89841466D01*
X216591548Y-89866452D01*
X216616534Y-89896897D01*
X216635102Y-89931636D01*
X216646535Y-89969323D01*
X216651000Y-90014661D01*
X216651000Y-90851339D01*
X216646535Y-90896677D01*
X216635102Y-90934364D01*
X216616534Y-90969103D01*
X216591548Y-90999548D01*
X216561103Y-91024534D01*
X216526364Y-91043102D01*
X216488677Y-91054535D01*
X216443339Y-91059000D01*
X215356661Y-91059000D01*
X215311323Y-91054535D01*
X215273636Y-91043102D01*
X215238897Y-91024534D01*
X215208452Y-90999548D01*
X215183466Y-90969103D01*
X215164898Y-90934364D01*
X215153465Y-90896677D01*
X215149000Y-90851339D01*
X215149000Y-90014661D01*
X215153465Y-89969323D01*
X215164898Y-89931636D01*
X215183466Y-89896897D01*
X215208452Y-89866452D01*
X215238897Y-89841466D01*
X215273636Y-89822898D01*
X215311323Y-89811465D01*
X215356661Y-89807000D01*
X216443339Y-89807000D01*
X216488677Y-89811465D01*
X216488677Y-89811465D01*
G37*
G36*
X219028677Y-89802465D02*
X219066364Y-89813898D01*
X219101103Y-89832466D01*
X219131548Y-89857452D01*
X219156534Y-89887897D01*
X219175102Y-89922636D01*
X219186535Y-89960323D01*
X219191000Y-90005661D01*
X219191000Y-90842339D01*
X219186535Y-90887677D01*
X219175102Y-90925364D01*
X219156534Y-90960103D01*
X219131548Y-90990548D01*
X219101103Y-91015534D01*
X219066364Y-91034102D01*
X219028677Y-91045535D01*
X218983339Y-91050000D01*
X217896661Y-91050000D01*
X217851323Y-91045535D01*
X217813636Y-91034102D01*
X217778897Y-91015534D01*
X217748452Y-90990548D01*
X217723466Y-90960103D01*
X217704898Y-90925364D01*
X217693465Y-90887677D01*
X217689000Y-90842339D01*
X217689000Y-90005661D01*
X217693465Y-89960323D01*
X217704898Y-89922636D01*
X217723466Y-89887897D01*
X217748452Y-89857452D01*
X217778897Y-89832466D01*
X217813636Y-89813898D01*
X217851323Y-89802465D01*
X217896661Y-89798000D01*
X218983339Y-89798000D01*
X219028677Y-89802465D01*
X219028677Y-89802465D01*
G37*
G36*
X160095110Y-89777398D02*
X160132300Y-89784795D01*
X160202366Y-89813817D01*
X160243745Y-89841466D01*
X160265426Y-89855953D01*
X160319047Y-89909574D01*
X160319049Y-89909577D01*
X160361183Y-89972634D01*
X160390205Y-90042700D01*
X160392644Y-90054962D01*
X160404279Y-90113452D01*
X160405000Y-90117081D01*
X160405000Y-90192919D01*
X160390205Y-90267300D01*
X160361183Y-90337366D01*
X160361182Y-90337367D01*
X160319047Y-90400426D01*
X160265426Y-90454047D01*
X160265423Y-90454049D01*
X160202366Y-90496183D01*
X160132300Y-90525205D01*
X160095109Y-90532603D01*
X160057921Y-90540000D01*
X159982079Y-90540000D01*
X159944891Y-90532603D01*
X159907700Y-90525205D01*
X159837634Y-90496183D01*
X159774577Y-90454049D01*
X159774574Y-90454047D01*
X159720953Y-90400426D01*
X159678818Y-90337367D01*
X159678817Y-90337366D01*
X159649795Y-90267300D01*
X159635000Y-90192919D01*
X159635000Y-90117081D01*
X159635722Y-90113452D01*
X159647356Y-90054962D01*
X159649795Y-90042700D01*
X159678817Y-89972634D01*
X159720951Y-89909577D01*
X159720953Y-89909574D01*
X159774574Y-89855953D01*
X159796255Y-89841466D01*
X159837634Y-89813817D01*
X159907700Y-89784795D01*
X159944891Y-89777397D01*
X159982079Y-89770000D01*
X160057921Y-89770000D01*
X160095110Y-89777398D01*
X160095110Y-89777398D01*
G37*
G36*
X161395110Y-89777398D02*
X161432300Y-89784795D01*
X161502366Y-89813817D01*
X161543745Y-89841466D01*
X161565426Y-89855953D01*
X161619047Y-89909574D01*
X161619049Y-89909577D01*
X161661183Y-89972634D01*
X161690205Y-90042700D01*
X161692644Y-90054962D01*
X161704279Y-90113452D01*
X161705000Y-90117081D01*
X161705000Y-90192919D01*
X161690205Y-90267300D01*
X161661183Y-90337366D01*
X161661182Y-90337367D01*
X161619047Y-90400426D01*
X161565426Y-90454047D01*
X161565423Y-90454049D01*
X161502366Y-90496183D01*
X161432300Y-90525205D01*
X161395109Y-90532603D01*
X161357921Y-90540000D01*
X161282079Y-90540000D01*
X161244891Y-90532603D01*
X161207700Y-90525205D01*
X161137634Y-90496183D01*
X161074577Y-90454049D01*
X161074574Y-90454047D01*
X161020953Y-90400426D01*
X160978818Y-90337367D01*
X160978817Y-90337366D01*
X160949795Y-90267300D01*
X160935000Y-90192919D01*
X160935000Y-90117081D01*
X160935722Y-90113452D01*
X160947356Y-90054962D01*
X160949795Y-90042700D01*
X160978817Y-89972634D01*
X161020951Y-89909577D01*
X161020953Y-89909574D01*
X161074574Y-89855953D01*
X161096255Y-89841466D01*
X161137634Y-89813817D01*
X161207700Y-89784795D01*
X161244891Y-89777397D01*
X161282079Y-89770000D01*
X161357921Y-89770000D01*
X161395110Y-89777398D01*
X161395110Y-89777398D01*
G37*
G36*
X158795110Y-89777398D02*
X158832300Y-89784795D01*
X158902366Y-89813817D01*
X158943745Y-89841466D01*
X158965426Y-89855953D01*
X159019047Y-89909574D01*
X159019049Y-89909577D01*
X159061183Y-89972634D01*
X159090205Y-90042700D01*
X159092644Y-90054962D01*
X159104279Y-90113452D01*
X159105000Y-90117081D01*
X159105000Y-90192919D01*
X159090205Y-90267300D01*
X159061183Y-90337366D01*
X159061182Y-90337367D01*
X159019047Y-90400426D01*
X158965426Y-90454047D01*
X158965423Y-90454049D01*
X158902366Y-90496183D01*
X158832300Y-90525205D01*
X158795109Y-90532603D01*
X158757921Y-90540000D01*
X158682079Y-90540000D01*
X158644891Y-90532603D01*
X158607700Y-90525205D01*
X158537634Y-90496183D01*
X158474577Y-90454049D01*
X158474574Y-90454047D01*
X158420953Y-90400426D01*
X158378818Y-90337367D01*
X158378817Y-90337366D01*
X158349795Y-90267300D01*
X158335000Y-90192919D01*
X158335000Y-90117081D01*
X158335722Y-90113452D01*
X158347356Y-90054962D01*
X158349795Y-90042700D01*
X158378817Y-89972634D01*
X158420951Y-89909577D01*
X158420953Y-89909574D01*
X158474574Y-89855953D01*
X158496255Y-89841466D01*
X158537634Y-89813817D01*
X158607700Y-89784795D01*
X158644891Y-89777397D01*
X158682079Y-89770000D01*
X158757921Y-89770000D01*
X158795110Y-89777398D01*
X158795110Y-89777398D01*
G37*
G36*
X204423677Y-87888465D02*
X204461364Y-87899898D01*
X204496103Y-87918466D01*
X204526548Y-87943452D01*
X204551534Y-87973897D01*
X204570102Y-88008636D01*
X204581535Y-88046323D01*
X204586000Y-88091661D01*
X204586000Y-88928339D01*
X204581535Y-88973677D01*
X204570102Y-89011364D01*
X204551534Y-89046103D01*
X204526548Y-89076548D01*
X204496103Y-89101534D01*
X204461364Y-89120102D01*
X204423677Y-89131535D01*
X204378339Y-89136000D01*
X203291661Y-89136000D01*
X203246323Y-89131535D01*
X203208636Y-89120102D01*
X203173897Y-89101534D01*
X203143452Y-89076548D01*
X203118466Y-89046103D01*
X203099898Y-89011364D01*
X203088465Y-88973677D01*
X203084000Y-88928339D01*
X203084000Y-88091661D01*
X203088465Y-88046323D01*
X203099898Y-88008636D01*
X203118466Y-87973897D01*
X203143452Y-87943452D01*
X203173897Y-87918466D01*
X203208636Y-87899898D01*
X203246323Y-87888465D01*
X203291661Y-87884000D01*
X204378339Y-87884000D01*
X204423677Y-87888465D01*
X204423677Y-87888465D01*
G37*
G36*
X189945677Y-87761465D02*
X189983364Y-87772898D01*
X190018103Y-87791466D01*
X190048548Y-87816452D01*
X190073534Y-87846897D01*
X190092102Y-87881636D01*
X190103535Y-87919323D01*
X190108000Y-87964661D01*
X190108000Y-88801339D01*
X190103535Y-88846677D01*
X190092102Y-88884364D01*
X190073534Y-88919103D01*
X190048548Y-88949548D01*
X190018103Y-88974534D01*
X189983364Y-88993102D01*
X189945677Y-89004535D01*
X189900339Y-89009000D01*
X188813661Y-89009000D01*
X188768323Y-89004535D01*
X188730636Y-88993102D01*
X188695897Y-88974534D01*
X188665452Y-88949548D01*
X188640466Y-88919103D01*
X188621898Y-88884364D01*
X188610465Y-88846677D01*
X188606000Y-88801339D01*
X188606000Y-87964661D01*
X188610465Y-87919323D01*
X188621898Y-87881636D01*
X188640466Y-87846897D01*
X188665452Y-87816452D01*
X188695897Y-87791466D01*
X188730636Y-87772898D01*
X188768323Y-87761465D01*
X188813661Y-87757000D01*
X189900339Y-87757000D01*
X189945677Y-87761465D01*
X189945677Y-87761465D01*
G37*
G36*
X216488677Y-87761465D02*
X216526364Y-87772898D01*
X216561103Y-87791466D01*
X216591548Y-87816452D01*
X216616534Y-87846897D01*
X216635102Y-87881636D01*
X216646535Y-87919323D01*
X216651000Y-87964661D01*
X216651000Y-88801339D01*
X216646535Y-88846677D01*
X216635102Y-88884364D01*
X216616534Y-88919103D01*
X216591548Y-88949548D01*
X216561103Y-88974534D01*
X216526364Y-88993102D01*
X216488677Y-89004535D01*
X216443339Y-89009000D01*
X215356661Y-89009000D01*
X215311323Y-89004535D01*
X215273636Y-88993102D01*
X215238897Y-88974534D01*
X215208452Y-88949548D01*
X215183466Y-88919103D01*
X215164898Y-88884364D01*
X215153465Y-88846677D01*
X215149000Y-88801339D01*
X215149000Y-87964661D01*
X215153465Y-87919323D01*
X215164898Y-87881636D01*
X215183466Y-87846897D01*
X215208452Y-87816452D01*
X215238897Y-87791466D01*
X215273636Y-87772898D01*
X215311323Y-87761465D01*
X215356661Y-87757000D01*
X216443339Y-87757000D01*
X216488677Y-87761465D01*
X216488677Y-87761465D01*
G37*
G36*
X219028677Y-87752465D02*
X219066364Y-87763898D01*
X219101103Y-87782466D01*
X219131548Y-87807452D01*
X219156534Y-87837897D01*
X219175102Y-87872636D01*
X219186535Y-87910323D01*
X219191000Y-87955661D01*
X219191000Y-88792339D01*
X219186535Y-88837677D01*
X219175102Y-88875364D01*
X219156534Y-88910103D01*
X219131548Y-88940548D01*
X219101103Y-88965534D01*
X219066364Y-88984102D01*
X219028677Y-88995535D01*
X218983339Y-89000000D01*
X217896661Y-89000000D01*
X217851323Y-88995535D01*
X217813636Y-88984102D01*
X217778897Y-88965534D01*
X217748452Y-88940548D01*
X217723466Y-88910103D01*
X217704898Y-88875364D01*
X217693465Y-88837677D01*
X217689000Y-88792339D01*
X217689000Y-87955661D01*
X217693465Y-87910323D01*
X217704898Y-87872636D01*
X217723466Y-87837897D01*
X217748452Y-87807452D01*
X217778897Y-87782466D01*
X217813636Y-87763898D01*
X217851323Y-87752465D01*
X217896661Y-87748000D01*
X218983339Y-87748000D01*
X219028677Y-87752465D01*
X219028677Y-87752465D01*
G37*
G36*
X193504000Y-88857000D02*
X191052000Y-88857000D01*
X191052000Y-87655000D01*
X193504000Y-87655000D01*
X193504000Y-88857000D01*
X193504000Y-88857000D01*
G37*
G36*
X222995442Y-86735518D02*
X223061627Y-86742037D01*
X223174853Y-86776384D01*
X223231467Y-86793557D01*
X223370087Y-86867652D01*
X223387991Y-86877222D01*
X223423729Y-86906552D01*
X223525186Y-86989814D01*
X223608448Y-87091271D01*
X223637778Y-87127009D01*
X223637779Y-87127011D01*
X223721443Y-87283533D01*
X223721443Y-87283534D01*
X223772963Y-87453373D01*
X223790359Y-87630000D01*
X223772963Y-87806627D01*
X223743207Y-87904718D01*
X223721443Y-87976467D01*
X223681060Y-88052017D01*
X223637778Y-88132991D01*
X223618753Y-88156173D01*
X223525186Y-88270186D01*
X223423729Y-88353448D01*
X223387991Y-88382778D01*
X223387989Y-88382779D01*
X223231467Y-88466443D01*
X223174853Y-88483616D01*
X223061627Y-88517963D01*
X222995442Y-88524482D01*
X222929260Y-88531000D01*
X222840740Y-88531000D01*
X222774558Y-88524482D01*
X222708373Y-88517963D01*
X222595147Y-88483616D01*
X222538533Y-88466443D01*
X222382011Y-88382779D01*
X222382009Y-88382778D01*
X222346271Y-88353448D01*
X222244814Y-88270186D01*
X222151247Y-88156173D01*
X222132222Y-88132991D01*
X222088940Y-88052017D01*
X222048557Y-87976467D01*
X222026793Y-87904718D01*
X221997037Y-87806627D01*
X221979641Y-87630000D01*
X221997037Y-87453373D01*
X222048557Y-87283534D01*
X222048557Y-87283533D01*
X222132221Y-87127011D01*
X222132222Y-87127009D01*
X222161552Y-87091271D01*
X222244814Y-86989814D01*
X222346271Y-86906552D01*
X222382009Y-86877222D01*
X222399913Y-86867652D01*
X222538533Y-86793557D01*
X222595147Y-86776384D01*
X222708373Y-86742037D01*
X222774558Y-86735518D01*
X222840740Y-86729000D01*
X222929260Y-86729000D01*
X222995442Y-86735518D01*
X222995442Y-86735518D01*
G37*
G36*
X195787677Y-85375465D02*
X195825364Y-85386898D01*
X195860103Y-85405466D01*
X195890548Y-85430452D01*
X195915534Y-85460897D01*
X195934102Y-85495636D01*
X195945535Y-85533323D01*
X195950000Y-85578661D01*
X195950000Y-86415339D01*
X195945535Y-86460677D01*
X195934102Y-86498364D01*
X195915534Y-86533103D01*
X195890548Y-86563548D01*
X195860103Y-86588534D01*
X195825364Y-86607102D01*
X195787677Y-86618535D01*
X195742339Y-86623000D01*
X194655661Y-86623000D01*
X194610323Y-86618535D01*
X194572636Y-86607102D01*
X194537897Y-86588534D01*
X194507452Y-86563548D01*
X194482466Y-86533103D01*
X194463898Y-86498364D01*
X194452465Y-86460677D01*
X194448000Y-86415339D01*
X194448000Y-85578661D01*
X194452465Y-85533323D01*
X194463898Y-85495636D01*
X194482466Y-85460897D01*
X194507452Y-85430452D01*
X194537897Y-85405466D01*
X194572636Y-85386898D01*
X194610323Y-85375465D01*
X194655661Y-85371000D01*
X195742339Y-85371000D01*
X195787677Y-85375465D01*
X195787677Y-85375465D01*
G37*
G36*
X186793635Y-82581019D02*
X186974903Y-82617075D01*
X187202571Y-82711378D01*
X187406542Y-82847668D01*
X187407469Y-82848287D01*
X187581713Y-83022531D01*
X187581715Y-83022534D01*
X187718622Y-83227429D01*
X187812925Y-83455097D01*
X187861000Y-83696787D01*
X187861000Y-83943213D01*
X187812925Y-84184903D01*
X187718622Y-84412571D01*
X187622117Y-84557000D01*
X187581713Y-84617469D01*
X187407469Y-84791713D01*
X187407466Y-84791715D01*
X187202571Y-84928622D01*
X186974903Y-85022925D01*
X186793635Y-85058981D01*
X186733214Y-85071000D01*
X186486786Y-85071000D01*
X186426364Y-85058981D01*
X186245097Y-85022925D01*
X186017429Y-84928622D01*
X185812534Y-84791715D01*
X185812531Y-84791713D01*
X185638287Y-84617469D01*
X185597883Y-84557000D01*
X185501378Y-84412571D01*
X185407075Y-84184903D01*
X185359000Y-83943213D01*
X185359000Y-83696787D01*
X185407075Y-83455097D01*
X185501378Y-83227429D01*
X185638285Y-83022534D01*
X185638287Y-83022531D01*
X185812531Y-82848287D01*
X185813458Y-82847668D01*
X186017429Y-82711378D01*
X186245097Y-82617075D01*
X186426365Y-82581019D01*
X186486786Y-82569000D01*
X186733214Y-82569000D01*
X186793635Y-82581019D01*
X186793635Y-82581019D01*
G37*
G36*
X182861000Y-85071000D02*
X180359000Y-85071000D01*
X180359000Y-82569000D01*
X182861000Y-82569000D01*
X182861000Y-85071000D01*
X182861000Y-85071000D01*
G37*
G36*
X168538635Y-82581019D02*
X168719903Y-82617075D01*
X168947571Y-82711378D01*
X169151542Y-82847668D01*
X169152469Y-82848287D01*
X169326713Y-83022531D01*
X169326715Y-83022534D01*
X169463622Y-83227429D01*
X169557925Y-83455097D01*
X169606000Y-83696787D01*
X169606000Y-83943213D01*
X169557925Y-84184903D01*
X169463622Y-84412571D01*
X169367117Y-84557000D01*
X169326713Y-84617469D01*
X169152469Y-84791713D01*
X169152466Y-84791715D01*
X168947571Y-84928622D01*
X168719903Y-85022925D01*
X168538635Y-85058981D01*
X168478214Y-85071000D01*
X168231786Y-85071000D01*
X168171364Y-85058981D01*
X167990097Y-85022925D01*
X167762429Y-84928622D01*
X167557534Y-84791715D01*
X167557531Y-84791713D01*
X167383287Y-84617469D01*
X167342883Y-84557000D01*
X167246378Y-84412571D01*
X167152075Y-84184903D01*
X167104000Y-83943213D01*
X167104000Y-83696787D01*
X167152075Y-83455097D01*
X167246378Y-83227429D01*
X167383285Y-83022534D01*
X167383287Y-83022531D01*
X167557531Y-82848287D01*
X167558458Y-82847668D01*
X167762429Y-82711378D01*
X167990097Y-82617075D01*
X168171365Y-82581019D01*
X168231786Y-82569000D01*
X168478214Y-82569000D01*
X168538635Y-82581019D01*
X168538635Y-82581019D01*
G37*
G36*
X174606000Y-85071000D02*
X172104000Y-85071000D01*
X172104000Y-82569000D01*
X174606000Y-82569000D01*
X174606000Y-85071000D01*
X174606000Y-85071000D01*
G37*
G36*
X195787677Y-83325465D02*
X195825364Y-83336898D01*
X195860103Y-83355466D01*
X195890548Y-83380452D01*
X195915534Y-83410897D01*
X195934102Y-83445636D01*
X195945535Y-83483323D01*
X195950000Y-83528661D01*
X195950000Y-84365339D01*
X195945535Y-84410677D01*
X195934102Y-84448364D01*
X195915534Y-84483103D01*
X195890548Y-84513548D01*
X195860103Y-84538534D01*
X195825364Y-84557102D01*
X195787677Y-84568535D01*
X195742339Y-84573000D01*
X194655661Y-84573000D01*
X194610323Y-84568535D01*
X194572636Y-84557102D01*
X194537897Y-84538534D01*
X194507452Y-84513548D01*
X194482466Y-84483103D01*
X194463898Y-84448364D01*
X194452465Y-84410677D01*
X194448000Y-84365339D01*
X194448000Y-83528661D01*
X194452465Y-83483323D01*
X194463898Y-83445636D01*
X194482466Y-83410897D01*
X194507452Y-83380452D01*
X194537897Y-83355466D01*
X194572636Y-83336898D01*
X194610323Y-83325465D01*
X194655661Y-83321000D01*
X195742339Y-83321000D01*
X195787677Y-83325465D01*
X195787677Y-83325465D01*
G37*
G36*
X193504000Y-84557000D02*
X191052000Y-84557000D01*
X191052000Y-83355000D01*
X193504000Y-83355000D01*
X193504000Y-84557000D01*
X193504000Y-84557000D01*
G37*
G36*
X216488677Y-77483465D02*
X216526364Y-77494898D01*
X216561103Y-77513466D01*
X216591548Y-77538452D01*
X216616534Y-77568897D01*
X216635102Y-77603636D01*
X216646535Y-77641323D01*
X216651000Y-77686661D01*
X216651000Y-78523339D01*
X216646535Y-78568677D01*
X216635102Y-78606364D01*
X216616534Y-78641103D01*
X216591548Y-78671548D01*
X216561103Y-78696534D01*
X216526364Y-78715102D01*
X216488677Y-78726535D01*
X216443339Y-78731000D01*
X215356661Y-78731000D01*
X215311323Y-78726535D01*
X215273636Y-78715102D01*
X215238897Y-78696534D01*
X215208452Y-78671548D01*
X215183466Y-78641103D01*
X215164898Y-78606364D01*
X215153465Y-78568677D01*
X215149000Y-78523339D01*
X215149000Y-77686661D01*
X215153465Y-77641323D01*
X215164898Y-77603636D01*
X215183466Y-77568897D01*
X215208452Y-77538452D01*
X215238897Y-77513466D01*
X215273636Y-77494898D01*
X215311323Y-77483465D01*
X215356661Y-77479000D01*
X216443339Y-77479000D01*
X216488677Y-77483465D01*
X216488677Y-77483465D01*
G37*
G36*
X213948677Y-77483465D02*
X213986364Y-77494898D01*
X214021103Y-77513466D01*
X214051548Y-77538452D01*
X214076534Y-77568897D01*
X214095102Y-77603636D01*
X214106535Y-77641323D01*
X214111000Y-77686661D01*
X214111000Y-78523339D01*
X214106535Y-78568677D01*
X214095102Y-78606364D01*
X214076534Y-78641103D01*
X214051548Y-78671548D01*
X214021103Y-78696534D01*
X213986364Y-78715102D01*
X213948677Y-78726535D01*
X213903339Y-78731000D01*
X212816661Y-78731000D01*
X212771323Y-78726535D01*
X212733636Y-78715102D01*
X212698897Y-78696534D01*
X212668452Y-78671548D01*
X212643466Y-78641103D01*
X212624898Y-78606364D01*
X212613465Y-78568677D01*
X212609000Y-78523339D01*
X212609000Y-77686661D01*
X212613465Y-77641323D01*
X212624898Y-77603636D01*
X212643466Y-77568897D01*
X212668452Y-77538452D01*
X212698897Y-77513466D01*
X212733636Y-77494898D01*
X212771323Y-77483465D01*
X212816661Y-77479000D01*
X213903339Y-77479000D01*
X213948677Y-77483465D01*
X213948677Y-77483465D01*
G37*
G36*
X192931000Y-77051000D02*
X191229000Y-77051000D01*
X191229000Y-75349000D01*
X192931000Y-75349000D01*
X192931000Y-77051000D01*
X192931000Y-77051000D01*
G37*
G36*
X195828228Y-75381703D02*
X195983100Y-75445853D01*
X196122481Y-75538985D01*
X196241015Y-75657519D01*
X196334147Y-75796900D01*
X196398297Y-75951772D01*
X196431000Y-76116184D01*
X196431000Y-76283816D01*
X196398297Y-76448228D01*
X196334147Y-76603100D01*
X196241015Y-76742481D01*
X196122481Y-76861015D01*
X195983100Y-76954147D01*
X195828228Y-77018297D01*
X195663816Y-77051000D01*
X195496184Y-77051000D01*
X195331772Y-77018297D01*
X195176900Y-76954147D01*
X195037519Y-76861015D01*
X194918985Y-76742481D01*
X194825853Y-76603100D01*
X194761703Y-76448228D01*
X194729000Y-76283816D01*
X194729000Y-76116184D01*
X194761703Y-75951772D01*
X194825853Y-75796900D01*
X194918985Y-75657519D01*
X195037519Y-75538985D01*
X195176900Y-75445853D01*
X195331772Y-75381703D01*
X195496184Y-75349000D01*
X195663816Y-75349000D01*
X195828228Y-75381703D01*
X195828228Y-75381703D01*
G37*
G36*
X158331000Y-77051000D02*
X156629000Y-77051000D01*
X156629000Y-75349000D01*
X158331000Y-75349000D01*
X158331000Y-77051000D01*
X158331000Y-77051000D01*
G37*
G36*
X161228228Y-75381703D02*
X161383100Y-75445853D01*
X161522481Y-75538985D01*
X161641015Y-75657519D01*
X161734147Y-75796900D01*
X161798297Y-75951772D01*
X161831000Y-76116184D01*
X161831000Y-76283816D01*
X161798297Y-76448228D01*
X161734147Y-76603100D01*
X161641015Y-76742481D01*
X161522481Y-76861015D01*
X161383100Y-76954147D01*
X161228228Y-77018297D01*
X161063816Y-77051000D01*
X160896184Y-77051000D01*
X160731772Y-77018297D01*
X160576900Y-76954147D01*
X160437519Y-76861015D01*
X160318985Y-76742481D01*
X160225853Y-76603100D01*
X160161703Y-76448228D01*
X160129000Y-76283816D01*
X160129000Y-76116184D01*
X160161703Y-75951772D01*
X160225853Y-75796900D01*
X160318985Y-75657519D01*
X160437519Y-75538985D01*
X160576900Y-75445853D01*
X160731772Y-75381703D01*
X160896184Y-75349000D01*
X161063816Y-75349000D01*
X161228228Y-75381703D01*
X161228228Y-75381703D01*
G37*
G36*
X216488677Y-75433465D02*
X216526364Y-75444898D01*
X216561103Y-75463466D01*
X216591548Y-75488452D01*
X216616534Y-75518897D01*
X216635102Y-75553636D01*
X216646535Y-75591323D01*
X216651000Y-75636661D01*
X216651000Y-76473339D01*
X216646535Y-76518677D01*
X216635102Y-76556364D01*
X216616534Y-76591103D01*
X216591548Y-76621548D01*
X216561103Y-76646534D01*
X216526364Y-76665102D01*
X216488677Y-76676535D01*
X216443339Y-76681000D01*
X215356661Y-76681000D01*
X215311323Y-76676535D01*
X215273636Y-76665102D01*
X215238897Y-76646534D01*
X215208452Y-76621548D01*
X215183466Y-76591103D01*
X215164898Y-76556364D01*
X215153465Y-76518677D01*
X215149000Y-76473339D01*
X215149000Y-75636661D01*
X215153465Y-75591323D01*
X215164898Y-75553636D01*
X215183466Y-75518897D01*
X215208452Y-75488452D01*
X215238897Y-75463466D01*
X215273636Y-75444898D01*
X215311323Y-75433465D01*
X215356661Y-75429000D01*
X216443339Y-75429000D01*
X216488677Y-75433465D01*
X216488677Y-75433465D01*
G37*
G36*
X213948677Y-75433465D02*
X213986364Y-75444898D01*
X214021103Y-75463466D01*
X214051548Y-75488452D01*
X214076534Y-75518897D01*
X214095102Y-75553636D01*
X214106535Y-75591323D01*
X214111000Y-75636661D01*
X214111000Y-76473339D01*
X214106535Y-76518677D01*
X214095102Y-76556364D01*
X214076534Y-76591103D01*
X214051548Y-76621548D01*
X214021103Y-76646534D01*
X213986364Y-76665102D01*
X213948677Y-76676535D01*
X213903339Y-76681000D01*
X212816661Y-76681000D01*
X212771323Y-76676535D01*
X212733636Y-76665102D01*
X212698897Y-76646534D01*
X212668452Y-76621548D01*
X212643466Y-76591103D01*
X212624898Y-76556364D01*
X212613465Y-76518677D01*
X212609000Y-76473339D01*
X212609000Y-75636661D01*
X212613465Y-75591323D01*
X212624898Y-75553636D01*
X212643466Y-75518897D01*
X212668452Y-75488452D01*
X212698897Y-75463466D01*
X212733636Y-75444898D01*
X212771323Y-75433465D01*
X212816661Y-75429000D01*
X213903339Y-75429000D01*
X213948677Y-75433465D01*
X213948677Y-75433465D01*
G37*
G36*
X194773677Y-72913465D02*
X194811364Y-72924898D01*
X194846103Y-72943466D01*
X194876548Y-72968452D01*
X194901534Y-72998897D01*
X194920102Y-73033636D01*
X194931535Y-73071323D01*
X194936000Y-73116661D01*
X194936000Y-74203339D01*
X194931535Y-74248677D01*
X194920102Y-74286364D01*
X194901534Y-74321103D01*
X194876548Y-74351548D01*
X194846103Y-74376534D01*
X194811364Y-74395102D01*
X194773677Y-74406535D01*
X194728339Y-74411000D01*
X193891661Y-74411000D01*
X193846323Y-74406535D01*
X193808636Y-74395102D01*
X193773897Y-74376534D01*
X193743452Y-74351548D01*
X193718466Y-74321103D01*
X193699898Y-74286364D01*
X193688465Y-74248677D01*
X193684000Y-74203339D01*
X193684000Y-73116661D01*
X193688465Y-73071323D01*
X193699898Y-73033636D01*
X193718466Y-72998897D01*
X193743452Y-72968452D01*
X193773897Y-72943466D01*
X193808636Y-72924898D01*
X193846323Y-72913465D01*
X193891661Y-72909000D01*
X194728339Y-72909000D01*
X194773677Y-72913465D01*
X194773677Y-72913465D01*
G37*
G36*
X160483677Y-72913465D02*
X160521364Y-72924898D01*
X160556103Y-72943466D01*
X160586548Y-72968452D01*
X160611534Y-72998897D01*
X160630102Y-73033636D01*
X160641535Y-73071323D01*
X160646000Y-73116661D01*
X160646000Y-74203339D01*
X160641535Y-74248677D01*
X160630102Y-74286364D01*
X160611534Y-74321103D01*
X160586548Y-74351548D01*
X160556103Y-74376534D01*
X160521364Y-74395102D01*
X160483677Y-74406535D01*
X160438339Y-74411000D01*
X159601661Y-74411000D01*
X159556323Y-74406535D01*
X159518636Y-74395102D01*
X159483897Y-74376534D01*
X159453452Y-74351548D01*
X159428466Y-74321103D01*
X159409898Y-74286364D01*
X159398465Y-74248677D01*
X159394000Y-74203339D01*
X159394000Y-73116661D01*
X159398465Y-73071323D01*
X159409898Y-73033636D01*
X159428466Y-72998897D01*
X159453452Y-72968452D01*
X159483897Y-72943466D01*
X159518636Y-72924898D01*
X159556323Y-72913465D01*
X159601661Y-72909000D01*
X160438339Y-72909000D01*
X160483677Y-72913465D01*
X160483677Y-72913465D01*
G37*
G36*
X158433677Y-72913465D02*
X158471364Y-72924898D01*
X158506103Y-72943466D01*
X158536548Y-72968452D01*
X158561534Y-72998897D01*
X158580102Y-73033636D01*
X158591535Y-73071323D01*
X158596000Y-73116661D01*
X158596000Y-74203339D01*
X158591535Y-74248677D01*
X158580102Y-74286364D01*
X158561534Y-74321103D01*
X158536548Y-74351548D01*
X158506103Y-74376534D01*
X158471364Y-74395102D01*
X158433677Y-74406535D01*
X158388339Y-74411000D01*
X157551661Y-74411000D01*
X157506323Y-74406535D01*
X157468636Y-74395102D01*
X157433897Y-74376534D01*
X157403452Y-74351548D01*
X157378466Y-74321103D01*
X157359898Y-74286364D01*
X157348465Y-74248677D01*
X157344000Y-74203339D01*
X157344000Y-73116661D01*
X157348465Y-73071323D01*
X157359898Y-73033636D01*
X157378466Y-72998897D01*
X157403452Y-72968452D01*
X157433897Y-72943466D01*
X157468636Y-72924898D01*
X157506323Y-72913465D01*
X157551661Y-72909000D01*
X158388339Y-72909000D01*
X158433677Y-72913465D01*
X158433677Y-72913465D01*
G37*
G36*
X192723677Y-72913465D02*
X192761364Y-72924898D01*
X192796103Y-72943466D01*
X192826548Y-72968452D01*
X192851534Y-72998897D01*
X192870102Y-73033636D01*
X192881535Y-73071323D01*
X192886000Y-73116661D01*
X192886000Y-74203339D01*
X192881535Y-74248677D01*
X192870102Y-74286364D01*
X192851534Y-74321103D01*
X192826548Y-74351548D01*
X192796103Y-74376534D01*
X192761364Y-74395102D01*
X192723677Y-74406535D01*
X192678339Y-74411000D01*
X191841661Y-74411000D01*
X191796323Y-74406535D01*
X191758636Y-74395102D01*
X191723897Y-74376534D01*
X191693452Y-74351548D01*
X191668466Y-74321103D01*
X191649898Y-74286364D01*
X191638465Y-74248677D01*
X191634000Y-74203339D01*
X191634000Y-73116661D01*
X191638465Y-73071323D01*
X191649898Y-73033636D01*
X191668466Y-72998897D01*
X191693452Y-72968452D01*
X191723897Y-72943466D01*
X191758636Y-72924898D01*
X191796323Y-72913465D01*
X191841661Y-72909000D01*
X192678339Y-72909000D01*
X192723677Y-72913465D01*
X192723677Y-72913465D01*
G37*
G36*
X185401000Y-74276000D02*
X182899000Y-74276000D01*
X182899000Y-71774000D01*
X185401000Y-71774000D01*
X185401000Y-74276000D01*
X185401000Y-74276000D01*
G37*
G36*
X172066000Y-74276000D02*
X169564000Y-74276000D01*
X169564000Y-71774000D01*
X172066000Y-71774000D01*
X172066000Y-74276000D01*
X172066000Y-74276000D01*
G37*
G36*
X207228677Y-71643465D02*
X207266364Y-71654898D01*
X207301103Y-71673466D01*
X207331548Y-71698452D01*
X207356534Y-71728897D01*
X207375102Y-71763636D01*
X207386535Y-71801323D01*
X207391000Y-71846661D01*
X207391000Y-72933339D01*
X207386535Y-72978677D01*
X207375102Y-73016364D01*
X207356534Y-73051103D01*
X207331548Y-73081548D01*
X207301103Y-73106534D01*
X207266364Y-73125102D01*
X207228677Y-73136535D01*
X207183339Y-73141000D01*
X206346661Y-73141000D01*
X206301323Y-73136535D01*
X206263636Y-73125102D01*
X206228897Y-73106534D01*
X206198452Y-73081548D01*
X206173466Y-73051103D01*
X206154898Y-73016364D01*
X206143465Y-72978677D01*
X206139000Y-72933339D01*
X206139000Y-71846661D01*
X206143465Y-71801323D01*
X206154898Y-71763636D01*
X206173466Y-71728897D01*
X206198452Y-71698452D01*
X206228897Y-71673466D01*
X206263636Y-71654898D01*
X206301323Y-71643465D01*
X206346661Y-71639000D01*
X207183339Y-71639000D01*
X207228677Y-71643465D01*
X207228677Y-71643465D01*
G37*
G36*
X205178677Y-71643465D02*
X205216364Y-71654898D01*
X205251103Y-71673466D01*
X205281548Y-71698452D01*
X205306534Y-71728897D01*
X205325102Y-71763636D01*
X205336535Y-71801323D01*
X205341000Y-71846661D01*
X205341000Y-72933339D01*
X205336535Y-72978677D01*
X205325102Y-73016364D01*
X205306534Y-73051103D01*
X205281548Y-73081548D01*
X205251103Y-73106534D01*
X205216364Y-73125102D01*
X205178677Y-73136535D01*
X205133339Y-73141000D01*
X204296661Y-73141000D01*
X204251323Y-73136535D01*
X204213636Y-73125102D01*
X204178897Y-73106534D01*
X204148452Y-73081548D01*
X204123466Y-73051103D01*
X204104898Y-73016364D01*
X204093465Y-72978677D01*
X204089000Y-72933339D01*
X204089000Y-71846661D01*
X204093465Y-71801323D01*
X204104898Y-71763636D01*
X204123466Y-71728897D01*
X204148452Y-71698452D01*
X204178897Y-71673466D01*
X204213636Y-71654898D01*
X204251323Y-71643465D01*
X204296661Y-71639000D01*
X205133339Y-71639000D01*
X205178677Y-71643465D01*
X205178677Y-71643465D01*
G37*
G36*
X179378821Y-70758103D02*
X179412982Y-70768466D01*
X179444464Y-70785293D01*
X179472060Y-70807940D01*
X179494707Y-70835536D01*
X179511534Y-70867018D01*
X179521897Y-70901179D01*
X179526000Y-70942842D01*
X179526000Y-72192158D01*
X179521897Y-72233821D01*
X179511534Y-72267982D01*
X179494707Y-72299464D01*
X179472060Y-72327060D01*
X179444464Y-72349707D01*
X179412982Y-72366534D01*
X179378821Y-72376897D01*
X179337158Y-72381000D01*
X176262842Y-72381000D01*
X176221179Y-72376897D01*
X176187018Y-72366534D01*
X176155536Y-72349707D01*
X176127940Y-72327060D01*
X176105293Y-72299464D01*
X176088466Y-72267982D01*
X176078103Y-72233821D01*
X176074000Y-72192158D01*
X176074000Y-70942842D01*
X176078103Y-70901179D01*
X176088466Y-70867018D01*
X176105293Y-70835536D01*
X176127940Y-70807940D01*
X176155536Y-70785293D01*
X176187018Y-70768466D01*
X176221179Y-70758103D01*
X176262842Y-70754000D01*
X179337158Y-70754000D01*
X179378821Y-70758103D01*
X179378821Y-70758103D01*
G37*
G36*
X159585000Y-70805000D02*
X157245000Y-70805000D01*
X157245000Y-70165000D01*
X159585000Y-70165000D01*
X159585000Y-70805000D01*
X159585000Y-70805000D01*
G37*
G36*
X193875000Y-70805000D02*
X191535000Y-70805000D01*
X191535000Y-70165000D01*
X193875000Y-70165000D01*
X193875000Y-70805000D01*
X193875000Y-70805000D01*
G37*
G36*
X199625000Y-70805000D02*
X197285000Y-70805000D01*
X197285000Y-70165000D01*
X199625000Y-70165000D01*
X199625000Y-70805000D01*
X199625000Y-70805000D01*
G37*
G36*
X165335000Y-70805000D02*
X162995000Y-70805000D01*
X162995000Y-70165000D01*
X165335000Y-70165000D01*
X165335000Y-70805000D01*
X165335000Y-70805000D01*
G37*
G36*
X160715110Y-66902398D02*
X160752300Y-66909795D01*
X160822366Y-66938817D01*
X160871312Y-66971522D01*
X160885426Y-66980953D01*
X160897861Y-66993388D01*
X160916803Y-67008934D01*
X160938414Y-67020485D01*
X160961863Y-67027598D01*
X160986249Y-67030000D01*
X161593751Y-67030000D01*
X161618137Y-67027598D01*
X161641586Y-67020485D01*
X161663197Y-67008934D01*
X161682139Y-66993388D01*
X161694574Y-66980953D01*
X161708688Y-66971522D01*
X161757634Y-66938817D01*
X161827700Y-66909795D01*
X161864890Y-66902398D01*
X161902079Y-66895000D01*
X161977921Y-66895000D01*
X162015110Y-66902398D01*
X162052300Y-66909795D01*
X162122366Y-66938817D01*
X162171312Y-66971522D01*
X162185426Y-66980953D01*
X162197861Y-66993388D01*
X162216803Y-67008934D01*
X162238414Y-67020485D01*
X162261863Y-67027598D01*
X162286249Y-67030000D01*
X162490000Y-67030000D01*
X162490000Y-70130000D01*
X162286249Y-70130000D01*
X162261863Y-70132402D01*
X162238414Y-70139515D01*
X162216803Y-70151066D01*
X162197861Y-70166612D01*
X162185426Y-70179047D01*
X162185423Y-70179049D01*
X162122366Y-70221183D01*
X162052300Y-70250205D01*
X162015110Y-70257602D01*
X161977921Y-70265000D01*
X161902079Y-70265000D01*
X161864890Y-70257602D01*
X161827700Y-70250205D01*
X161757634Y-70221183D01*
X161694577Y-70179049D01*
X161694574Y-70179047D01*
X161682139Y-70166612D01*
X161663197Y-70151066D01*
X161641586Y-70139515D01*
X161618137Y-70132402D01*
X161593751Y-70130000D01*
X160986249Y-70130000D01*
X160961863Y-70132402D01*
X160938414Y-70139515D01*
X160916803Y-70151066D01*
X160897861Y-70166612D01*
X160885426Y-70179047D01*
X160885423Y-70179049D01*
X160822366Y-70221183D01*
X160752300Y-70250205D01*
X160715110Y-70257602D01*
X160677921Y-70265000D01*
X160602079Y-70265000D01*
X160564890Y-70257602D01*
X160527700Y-70250205D01*
X160457634Y-70221183D01*
X160394577Y-70179049D01*
X160394574Y-70179047D01*
X160382139Y-70166612D01*
X160363197Y-70151066D01*
X160341586Y-70139515D01*
X160318137Y-70132402D01*
X160293751Y-70130000D01*
X160090000Y-70130000D01*
X160090000Y-67030000D01*
X160293751Y-67030000D01*
X160318137Y-67027598D01*
X160341586Y-67020485D01*
X160363197Y-67008934D01*
X160382139Y-66993388D01*
X160394574Y-66980953D01*
X160408688Y-66971522D01*
X160457634Y-66938817D01*
X160527700Y-66909795D01*
X160564890Y-66902398D01*
X160602079Y-66895000D01*
X160677921Y-66895000D01*
X160715110Y-66902398D01*
X160715110Y-66902398D01*
G37*
G36*
X195005110Y-66902398D02*
X195042300Y-66909795D01*
X195112366Y-66938817D01*
X195161312Y-66971522D01*
X195175426Y-66980953D01*
X195187861Y-66993388D01*
X195206803Y-67008934D01*
X195228414Y-67020485D01*
X195251863Y-67027598D01*
X195276249Y-67030000D01*
X195883751Y-67030000D01*
X195908137Y-67027598D01*
X195931586Y-67020485D01*
X195953197Y-67008934D01*
X195972139Y-66993388D01*
X195984574Y-66980953D01*
X195998688Y-66971522D01*
X196047634Y-66938817D01*
X196117700Y-66909795D01*
X196154890Y-66902398D01*
X196192079Y-66895000D01*
X196267921Y-66895000D01*
X196305110Y-66902398D01*
X196342300Y-66909795D01*
X196412366Y-66938817D01*
X196461312Y-66971522D01*
X196475426Y-66980953D01*
X196487861Y-66993388D01*
X196506803Y-67008934D01*
X196528414Y-67020485D01*
X196551863Y-67027598D01*
X196576249Y-67030000D01*
X196780000Y-67030000D01*
X196780000Y-70130000D01*
X196576249Y-70130000D01*
X196551863Y-70132402D01*
X196528414Y-70139515D01*
X196506803Y-70151066D01*
X196487861Y-70166612D01*
X196475426Y-70179047D01*
X196475423Y-70179049D01*
X196412366Y-70221183D01*
X196342300Y-70250205D01*
X196305110Y-70257602D01*
X196267921Y-70265000D01*
X196192079Y-70265000D01*
X196154890Y-70257602D01*
X196117700Y-70250205D01*
X196047634Y-70221183D01*
X195984577Y-70179049D01*
X195984574Y-70179047D01*
X195972139Y-70166612D01*
X195953197Y-70151066D01*
X195931586Y-70139515D01*
X195908137Y-70132402D01*
X195883751Y-70130000D01*
X195276249Y-70130000D01*
X195251863Y-70132402D01*
X195228414Y-70139515D01*
X195206803Y-70151066D01*
X195187861Y-70166612D01*
X195175426Y-70179047D01*
X195175423Y-70179049D01*
X195112366Y-70221183D01*
X195042300Y-70250205D01*
X195005110Y-70257602D01*
X194967921Y-70265000D01*
X194892079Y-70265000D01*
X194854890Y-70257602D01*
X194817700Y-70250205D01*
X194747634Y-70221183D01*
X194684577Y-70179049D01*
X194684574Y-70179047D01*
X194672139Y-70166612D01*
X194653197Y-70151066D01*
X194631586Y-70139515D01*
X194608137Y-70132402D01*
X194583751Y-70130000D01*
X194380000Y-70130000D01*
X194380000Y-67030000D01*
X194583751Y-67030000D01*
X194608137Y-67027598D01*
X194631586Y-67020485D01*
X194653197Y-67008934D01*
X194672139Y-66993388D01*
X194684574Y-66980953D01*
X194698688Y-66971522D01*
X194747634Y-66938817D01*
X194817700Y-66909795D01*
X194854890Y-66902398D01*
X194892079Y-66895000D01*
X194967921Y-66895000D01*
X195005110Y-66902398D01*
X195005110Y-66902398D01*
G37*
G36*
X190259562Y-68455681D02*
X190294477Y-68466273D01*
X190326665Y-68483478D01*
X190354873Y-68506627D01*
X190378022Y-68534835D01*
X190395227Y-68567023D01*
X190405819Y-68601938D01*
X190410000Y-68644395D01*
X190410000Y-69785605D01*
X190405819Y-69828062D01*
X190395227Y-69862977D01*
X190378022Y-69895165D01*
X190354873Y-69923373D01*
X190326665Y-69946522D01*
X190294477Y-69963727D01*
X190259562Y-69974319D01*
X190217105Y-69978500D01*
X188750895Y-69978500D01*
X188708438Y-69974319D01*
X188673523Y-69963727D01*
X188641335Y-69946522D01*
X188613127Y-69923373D01*
X188589978Y-69895165D01*
X188572773Y-69862977D01*
X188562181Y-69828062D01*
X188558000Y-69785605D01*
X188558000Y-68644395D01*
X188562181Y-68601938D01*
X188572773Y-68567023D01*
X188589978Y-68534835D01*
X188613127Y-68506627D01*
X188641335Y-68483478D01*
X188673523Y-68466273D01*
X188708438Y-68455681D01*
X188750895Y-68451500D01*
X190217105Y-68451500D01*
X190259562Y-68455681D01*
X190259562Y-68455681D01*
G37*
G36*
X154445562Y-68455681D02*
X154480477Y-68466273D01*
X154512665Y-68483478D01*
X154540873Y-68506627D01*
X154564022Y-68534835D01*
X154581227Y-68567023D01*
X154591819Y-68601938D01*
X154596000Y-68644395D01*
X154596000Y-69785605D01*
X154591819Y-69828062D01*
X154581227Y-69862977D01*
X154564022Y-69895165D01*
X154540873Y-69923373D01*
X154512665Y-69946522D01*
X154480477Y-69963727D01*
X154445562Y-69974319D01*
X154403105Y-69978500D01*
X152936895Y-69978500D01*
X152894438Y-69974319D01*
X152859523Y-69963727D01*
X152827335Y-69946522D01*
X152799127Y-69923373D01*
X152775978Y-69895165D01*
X152758773Y-69862977D01*
X152748181Y-69828062D01*
X152744000Y-69785605D01*
X152744000Y-68644395D01*
X152748181Y-68601938D01*
X152758773Y-68567023D01*
X152775978Y-68534835D01*
X152799127Y-68506627D01*
X152827335Y-68483478D01*
X152859523Y-68466273D01*
X152894438Y-68455681D01*
X152936895Y-68451500D01*
X154403105Y-68451500D01*
X154445562Y-68455681D01*
X154445562Y-68455681D01*
G37*
G36*
X207228677Y-68468465D02*
X207266364Y-68479898D01*
X207301103Y-68498466D01*
X207331548Y-68523452D01*
X207356534Y-68553897D01*
X207375102Y-68588636D01*
X207386535Y-68626323D01*
X207391000Y-68671661D01*
X207391000Y-69758339D01*
X207386535Y-69803677D01*
X207375102Y-69841364D01*
X207356534Y-69876103D01*
X207331548Y-69906548D01*
X207301103Y-69931534D01*
X207266364Y-69950102D01*
X207228677Y-69961535D01*
X207183339Y-69966000D01*
X206346661Y-69966000D01*
X206301323Y-69961535D01*
X206263636Y-69950102D01*
X206228897Y-69931534D01*
X206198452Y-69906548D01*
X206173466Y-69876103D01*
X206154898Y-69841364D01*
X206143465Y-69803677D01*
X206139000Y-69758339D01*
X206139000Y-68671661D01*
X206143465Y-68626323D01*
X206154898Y-68588636D01*
X206173466Y-68553897D01*
X206198452Y-68523452D01*
X206228897Y-68498466D01*
X206263636Y-68479898D01*
X206301323Y-68468465D01*
X206346661Y-68464000D01*
X207183339Y-68464000D01*
X207228677Y-68468465D01*
X207228677Y-68468465D01*
G37*
G36*
X205178677Y-68468465D02*
X205216364Y-68479898D01*
X205251103Y-68498466D01*
X205281548Y-68523452D01*
X205306534Y-68553897D01*
X205325102Y-68588636D01*
X205336535Y-68626323D01*
X205341000Y-68671661D01*
X205341000Y-69758339D01*
X205336535Y-69803677D01*
X205325102Y-69841364D01*
X205306534Y-69876103D01*
X205281548Y-69906548D01*
X205251103Y-69931534D01*
X205216364Y-69950102D01*
X205178677Y-69961535D01*
X205133339Y-69966000D01*
X204296661Y-69966000D01*
X204251323Y-69961535D01*
X204213636Y-69950102D01*
X204178897Y-69931534D01*
X204148452Y-69906548D01*
X204123466Y-69876103D01*
X204104898Y-69841364D01*
X204093465Y-69803677D01*
X204089000Y-69758339D01*
X204089000Y-68671661D01*
X204093465Y-68626323D01*
X204104898Y-68588636D01*
X204123466Y-68553897D01*
X204148452Y-68523452D01*
X204178897Y-68498466D01*
X204213636Y-68479898D01*
X204251323Y-68468465D01*
X204296661Y-68464000D01*
X205133339Y-68464000D01*
X205178677Y-68468465D01*
X205178677Y-68468465D01*
G37*
G36*
X159585000Y-69535000D02*
X157245000Y-69535000D01*
X157245000Y-68895000D01*
X159585000Y-68895000D01*
X159585000Y-69535000D01*
X159585000Y-69535000D01*
G37*
G36*
X165335000Y-69535000D02*
X162995000Y-69535000D01*
X162995000Y-68895000D01*
X165335000Y-68895000D01*
X165335000Y-69535000D01*
X165335000Y-69535000D01*
G37*
G36*
X193875000Y-69535000D02*
X191535000Y-69535000D01*
X191535000Y-68895000D01*
X193875000Y-68895000D01*
X193875000Y-69535000D01*
X193875000Y-69535000D01*
G37*
G36*
X199625000Y-69535000D02*
X197285000Y-69535000D01*
X197285000Y-68895000D01*
X199625000Y-68895000D01*
X199625000Y-69535000D01*
X199625000Y-69535000D01*
G37*
G36*
X170998635Y-66786019D02*
X171179903Y-66822075D01*
X171407571Y-66916378D01*
X171611542Y-67052668D01*
X171612469Y-67053287D01*
X171786713Y-67227531D01*
X171786715Y-67227534D01*
X171923622Y-67432429D01*
X172017925Y-67660097D01*
X172066000Y-67901787D01*
X172066000Y-68148213D01*
X172017925Y-68389903D01*
X171923622Y-68617571D01*
X171787332Y-68821542D01*
X171786713Y-68822469D01*
X171612469Y-68996713D01*
X171612466Y-68996715D01*
X171407571Y-69133622D01*
X171179903Y-69227925D01*
X170998635Y-69263981D01*
X170938214Y-69276000D01*
X170691786Y-69276000D01*
X170631365Y-69263981D01*
X170450097Y-69227925D01*
X170222429Y-69133622D01*
X170017534Y-68996715D01*
X170017531Y-68996713D01*
X169843287Y-68822469D01*
X169842668Y-68821542D01*
X169706378Y-68617571D01*
X169612075Y-68389903D01*
X169564000Y-68148213D01*
X169564000Y-67901787D01*
X169612075Y-67660097D01*
X169706378Y-67432429D01*
X169843285Y-67227534D01*
X169843287Y-67227531D01*
X170017531Y-67053287D01*
X170018458Y-67052668D01*
X170222429Y-66916378D01*
X170450097Y-66822075D01*
X170631365Y-66786019D01*
X170691786Y-66774000D01*
X170938214Y-66774000D01*
X170998635Y-66786019D01*
X170998635Y-66786019D01*
G37*
G36*
X184333635Y-66786019D02*
X184514903Y-66822075D01*
X184742571Y-66916378D01*
X184946542Y-67052668D01*
X184947469Y-67053287D01*
X185121713Y-67227531D01*
X185121715Y-67227534D01*
X185258622Y-67432429D01*
X185352925Y-67660097D01*
X185401000Y-67901787D01*
X185401000Y-68148213D01*
X185352925Y-68389903D01*
X185258622Y-68617571D01*
X185122332Y-68821542D01*
X185121713Y-68822469D01*
X184947469Y-68996713D01*
X184947466Y-68996715D01*
X184742571Y-69133622D01*
X184514903Y-69227925D01*
X184333635Y-69263981D01*
X184273214Y-69276000D01*
X184026786Y-69276000D01*
X183966365Y-69263981D01*
X183785097Y-69227925D01*
X183557429Y-69133622D01*
X183352534Y-68996715D01*
X183352531Y-68996713D01*
X183178287Y-68822469D01*
X183177668Y-68821542D01*
X183041378Y-68617571D01*
X182947075Y-68389903D01*
X182899000Y-68148213D01*
X182899000Y-67901787D01*
X182947075Y-67660097D01*
X183041378Y-67432429D01*
X183178285Y-67227534D01*
X183178287Y-67227531D01*
X183352531Y-67053287D01*
X183353458Y-67052668D01*
X183557429Y-66916378D01*
X183785097Y-66822075D01*
X183966365Y-66786019D01*
X184026786Y-66774000D01*
X184273214Y-66774000D01*
X184333635Y-66786019D01*
X184333635Y-66786019D01*
G37*
G36*
X159585000Y-68265000D02*
X157245000Y-68265000D01*
X157245000Y-67625000D01*
X159585000Y-67625000D01*
X159585000Y-68265000D01*
X159585000Y-68265000D01*
G37*
G36*
X165335000Y-68265000D02*
X162995000Y-68265000D01*
X162995000Y-67625000D01*
X165335000Y-67625000D01*
X165335000Y-68265000D01*
X165335000Y-68265000D01*
G37*
G36*
X199625000Y-68265000D02*
X197285000Y-68265000D01*
X197285000Y-67625000D01*
X199625000Y-67625000D01*
X199625000Y-68265000D01*
X199625000Y-68265000D01*
G37*
G36*
X193875000Y-68265000D02*
X191535000Y-68265000D01*
X191535000Y-67625000D01*
X193875000Y-67625000D01*
X193875000Y-68265000D01*
X193875000Y-68265000D01*
G37*
G36*
X154445562Y-65480681D02*
X154480477Y-65491273D01*
X154512665Y-65508478D01*
X154540873Y-65531627D01*
X154564022Y-65559835D01*
X154581227Y-65592023D01*
X154591819Y-65626938D01*
X154596000Y-65669395D01*
X154596000Y-66810605D01*
X154591819Y-66853062D01*
X154581227Y-66887977D01*
X154564022Y-66920165D01*
X154540873Y-66948373D01*
X154512665Y-66971522D01*
X154480477Y-66988727D01*
X154445562Y-66999319D01*
X154403105Y-67003500D01*
X152936895Y-67003500D01*
X152894438Y-66999319D01*
X152859523Y-66988727D01*
X152827335Y-66971522D01*
X152799127Y-66948373D01*
X152775978Y-66920165D01*
X152758773Y-66887977D01*
X152748181Y-66853062D01*
X152744000Y-66810605D01*
X152744000Y-65669395D01*
X152748181Y-65626938D01*
X152758773Y-65592023D01*
X152775978Y-65559835D01*
X152799127Y-65531627D01*
X152827335Y-65508478D01*
X152859523Y-65491273D01*
X152894438Y-65480681D01*
X152936895Y-65476500D01*
X154403105Y-65476500D01*
X154445562Y-65480681D01*
X154445562Y-65480681D01*
G37*
G36*
X190259562Y-65480681D02*
X190294477Y-65491273D01*
X190326665Y-65508478D01*
X190354873Y-65531627D01*
X190378022Y-65559835D01*
X190395227Y-65592023D01*
X190405819Y-65626938D01*
X190410000Y-65669395D01*
X190410000Y-66810605D01*
X190405819Y-66853062D01*
X190395227Y-66887977D01*
X190378022Y-66920165D01*
X190354873Y-66948373D01*
X190326665Y-66971522D01*
X190294477Y-66988727D01*
X190259562Y-66999319D01*
X190217105Y-67003500D01*
X188750895Y-67003500D01*
X188708438Y-66999319D01*
X188673523Y-66988727D01*
X188641335Y-66971522D01*
X188613127Y-66948373D01*
X188589978Y-66920165D01*
X188572773Y-66887977D01*
X188562181Y-66853062D01*
X188558000Y-66810605D01*
X188558000Y-65669395D01*
X188562181Y-65626938D01*
X188572773Y-65592023D01*
X188589978Y-65559835D01*
X188613127Y-65531627D01*
X188641335Y-65508478D01*
X188673523Y-65491273D01*
X188708438Y-65480681D01*
X188750895Y-65476500D01*
X190217105Y-65476500D01*
X190259562Y-65480681D01*
X190259562Y-65480681D01*
G37*
G36*
X165335000Y-66995000D02*
X162995000Y-66995000D01*
X162995000Y-66355000D01*
X165335000Y-66355000D01*
X165335000Y-66995000D01*
X165335000Y-66995000D01*
G37*
G36*
X159585000Y-66995000D02*
X157245000Y-66995000D01*
X157245000Y-66355000D01*
X159585000Y-66355000D01*
X159585000Y-66995000D01*
X159585000Y-66995000D01*
G37*
G36*
X193875000Y-66995000D02*
X191535000Y-66995000D01*
X191535000Y-66355000D01*
X193875000Y-66355000D01*
X193875000Y-66995000D01*
X193875000Y-66995000D01*
G37*
G36*
X199625000Y-66995000D02*
X197285000Y-66995000D01*
X197285000Y-66355000D01*
X199625000Y-66355000D01*
X199625000Y-66995000D01*
X199625000Y-66995000D01*
G37*
G36*
X179378821Y-64783103D02*
X179412982Y-64793466D01*
X179444464Y-64810293D01*
X179472060Y-64832940D01*
X179494707Y-64860536D01*
X179511534Y-64892018D01*
X179521897Y-64926179D01*
X179526000Y-64967842D01*
X179526000Y-66217158D01*
X179521897Y-66258821D01*
X179511534Y-66292982D01*
X179494707Y-66324464D01*
X179472060Y-66352060D01*
X179444464Y-66374707D01*
X179412982Y-66391534D01*
X179378821Y-66401897D01*
X179337158Y-66406000D01*
X176262842Y-66406000D01*
X176221179Y-66401897D01*
X176187018Y-66391534D01*
X176155536Y-66374707D01*
X176127940Y-66352060D01*
X176105293Y-66324464D01*
X176088466Y-66292982D01*
X176078103Y-66258821D01*
X176074000Y-66217158D01*
X176074000Y-64967842D01*
X176078103Y-64926179D01*
X176088466Y-64892018D01*
X176105293Y-64860536D01*
X176127940Y-64832940D01*
X176155536Y-64810293D01*
X176187018Y-64793466D01*
X176221179Y-64783103D01*
X176262842Y-64779000D01*
X179337158Y-64779000D01*
X179378821Y-64783103D01*
X179378821Y-64783103D01*
G37*
G36*
X164674677Y-62753465D02*
X164712364Y-62764898D01*
X164747103Y-62783466D01*
X164777548Y-62808452D01*
X164802534Y-62838897D01*
X164821102Y-62873636D01*
X164832535Y-62911323D01*
X164837000Y-62956661D01*
X164837000Y-64043339D01*
X164832535Y-64088677D01*
X164821102Y-64126364D01*
X164802534Y-64161103D01*
X164777548Y-64191548D01*
X164747103Y-64216534D01*
X164712364Y-64235102D01*
X164674677Y-64246535D01*
X164629339Y-64251000D01*
X163792661Y-64251000D01*
X163747323Y-64246535D01*
X163709636Y-64235102D01*
X163674897Y-64216534D01*
X163644452Y-64191548D01*
X163619466Y-64161103D01*
X163600898Y-64126364D01*
X163589465Y-64088677D01*
X163585000Y-64043339D01*
X163585000Y-62956661D01*
X163589465Y-62911323D01*
X163600898Y-62873636D01*
X163619466Y-62838897D01*
X163644452Y-62808452D01*
X163674897Y-62783466D01*
X163709636Y-62764898D01*
X163747323Y-62753465D01*
X163792661Y-62749000D01*
X164629339Y-62749000D01*
X164674677Y-62753465D01*
X164674677Y-62753465D01*
G37*
G36*
X162624677Y-62753465D02*
X162662364Y-62764898D01*
X162697103Y-62783466D01*
X162727548Y-62808452D01*
X162752534Y-62838897D01*
X162771102Y-62873636D01*
X162782535Y-62911323D01*
X162787000Y-62956661D01*
X162787000Y-64043339D01*
X162782535Y-64088677D01*
X162771102Y-64126364D01*
X162752534Y-64161103D01*
X162727548Y-64191548D01*
X162697103Y-64216534D01*
X162662364Y-64235102D01*
X162624677Y-64246535D01*
X162579339Y-64251000D01*
X161742661Y-64251000D01*
X161697323Y-64246535D01*
X161659636Y-64235102D01*
X161624897Y-64216534D01*
X161594452Y-64191548D01*
X161569466Y-64161103D01*
X161550898Y-64126364D01*
X161539465Y-64088677D01*
X161535000Y-64043339D01*
X161535000Y-62956661D01*
X161539465Y-62911323D01*
X161550898Y-62873636D01*
X161569466Y-62838897D01*
X161594452Y-62808452D01*
X161624897Y-62783466D01*
X161659636Y-62764898D01*
X161697323Y-62753465D01*
X161742661Y-62749000D01*
X162579339Y-62749000D01*
X162624677Y-62753465D01*
X162624677Y-62753465D01*
G37*
G36*
X198973677Y-62753465D02*
X199011364Y-62764898D01*
X199046103Y-62783466D01*
X199076548Y-62808452D01*
X199101534Y-62838897D01*
X199120102Y-62873636D01*
X199131535Y-62911323D01*
X199136000Y-62956661D01*
X199136000Y-64043339D01*
X199131535Y-64088677D01*
X199120102Y-64126364D01*
X199101534Y-64161103D01*
X199076548Y-64191548D01*
X199046103Y-64216534D01*
X199011364Y-64235102D01*
X198973677Y-64246535D01*
X198928339Y-64251000D01*
X198091661Y-64251000D01*
X198046323Y-64246535D01*
X198008636Y-64235102D01*
X197973897Y-64216534D01*
X197943452Y-64191548D01*
X197918466Y-64161103D01*
X197899898Y-64126364D01*
X197888465Y-64088677D01*
X197884000Y-64043339D01*
X197884000Y-62956661D01*
X197888465Y-62911323D01*
X197899898Y-62873636D01*
X197918466Y-62838897D01*
X197943452Y-62808452D01*
X197973897Y-62783466D01*
X198008636Y-62764898D01*
X198046323Y-62753465D01*
X198091661Y-62749000D01*
X198928339Y-62749000D01*
X198973677Y-62753465D01*
X198973677Y-62753465D01*
G37*
G36*
X196923677Y-62753465D02*
X196961364Y-62764898D01*
X196996103Y-62783466D01*
X197026548Y-62808452D01*
X197051534Y-62838897D01*
X197070102Y-62873636D01*
X197081535Y-62911323D01*
X197086000Y-62956661D01*
X197086000Y-64043339D01*
X197081535Y-64088677D01*
X197070102Y-64126364D01*
X197051534Y-64161103D01*
X197026548Y-64191548D01*
X196996103Y-64216534D01*
X196961364Y-64235102D01*
X196923677Y-64246535D01*
X196878339Y-64251000D01*
X196041661Y-64251000D01*
X195996323Y-64246535D01*
X195958636Y-64235102D01*
X195923897Y-64216534D01*
X195893452Y-64191548D01*
X195868466Y-64161103D01*
X195849898Y-64126364D01*
X195838465Y-64088677D01*
X195834000Y-64043339D01*
X195834000Y-62956661D01*
X195838465Y-62911323D01*
X195849898Y-62873636D01*
X195868466Y-62838897D01*
X195893452Y-62808452D01*
X195923897Y-62783466D01*
X195958636Y-62764898D01*
X195996323Y-62753465D01*
X196041661Y-62749000D01*
X196878339Y-62749000D01*
X196923677Y-62753465D01*
X196923677Y-62753465D01*
G37*
G36*
X158946719Y-61193520D02*
X159135880Y-61250901D01*
X159310212Y-61344083D01*
X159463015Y-61469485D01*
X159588417Y-61622288D01*
X159681599Y-61796619D01*
X159738980Y-61985780D01*
X159753500Y-62133206D01*
X159753500Y-62326793D01*
X159738980Y-62474219D01*
X159681599Y-62663380D01*
X159588417Y-62837712D01*
X159463015Y-62990515D01*
X159310212Y-63115917D01*
X159135881Y-63209099D01*
X158946720Y-63266480D01*
X158750000Y-63285855D01*
X158553281Y-63266480D01*
X158364120Y-63209099D01*
X158189788Y-63115917D01*
X158036985Y-62990515D01*
X157911583Y-62837712D01*
X157818401Y-62663381D01*
X157761020Y-62474220D01*
X157746500Y-62326794D01*
X157746500Y-62133207D01*
X157761020Y-61985781D01*
X157818401Y-61796620D01*
X157911583Y-61622288D01*
X158036985Y-61469485D01*
X158189788Y-61344083D01*
X158364119Y-61250901D01*
X158553280Y-61193520D01*
X158750000Y-61174145D01*
X158946719Y-61193520D01*
X158946719Y-61193520D01*
G37*
G36*
X156406719Y-61193520D02*
X156595880Y-61250901D01*
X156770212Y-61344083D01*
X156923015Y-61469485D01*
X157048417Y-61622288D01*
X157141599Y-61796619D01*
X157198980Y-61985780D01*
X157213500Y-62133206D01*
X157213500Y-62326793D01*
X157198980Y-62474219D01*
X157141599Y-62663380D01*
X157048417Y-62837712D01*
X156923015Y-62990515D01*
X156770212Y-63115917D01*
X156595881Y-63209099D01*
X156406720Y-63266480D01*
X156210000Y-63285855D01*
X156013281Y-63266480D01*
X155824120Y-63209099D01*
X155649788Y-63115917D01*
X155496985Y-62990515D01*
X155371583Y-62837712D01*
X155278401Y-62663381D01*
X155221020Y-62474220D01*
X155206500Y-62326794D01*
X155206500Y-62133207D01*
X155221020Y-61985781D01*
X155278401Y-61796620D01*
X155371583Y-61622288D01*
X155496985Y-61469485D01*
X155649788Y-61344083D01*
X155824119Y-61250901D01*
X156013280Y-61193520D01*
X156210000Y-61174145D01*
X156406719Y-61193520D01*
X156406719Y-61193520D01*
G37*
G36*
X170376719Y-61193520D02*
X170565880Y-61250901D01*
X170740212Y-61344083D01*
X170893015Y-61469485D01*
X171018417Y-61622288D01*
X171111599Y-61796619D01*
X171168980Y-61985780D01*
X171183500Y-62133206D01*
X171183500Y-62326793D01*
X171168980Y-62474219D01*
X171111599Y-62663380D01*
X171018417Y-62837712D01*
X170893015Y-62990515D01*
X170740212Y-63115917D01*
X170565881Y-63209099D01*
X170376720Y-63266480D01*
X170180000Y-63285855D01*
X169983281Y-63266480D01*
X169794120Y-63209099D01*
X169619788Y-63115917D01*
X169466985Y-62990515D01*
X169341583Y-62837712D01*
X169248401Y-62663381D01*
X169191020Y-62474220D01*
X169176500Y-62326794D01*
X169176500Y-62133207D01*
X169191020Y-61985781D01*
X169248401Y-61796620D01*
X169341583Y-61622288D01*
X169466985Y-61469485D01*
X169619788Y-61344083D01*
X169794119Y-61250901D01*
X169983280Y-61193520D01*
X170180000Y-61174145D01*
X170376719Y-61193520D01*
X170376719Y-61193520D01*
G37*
G36*
X172916719Y-61193520D02*
X173105880Y-61250901D01*
X173280212Y-61344083D01*
X173433015Y-61469485D01*
X173558417Y-61622288D01*
X173651599Y-61796619D01*
X173708980Y-61985780D01*
X173723500Y-62133206D01*
X173723500Y-62326793D01*
X173708980Y-62474219D01*
X173651599Y-62663380D01*
X173558417Y-62837712D01*
X173433015Y-62990515D01*
X173280212Y-63115917D01*
X173105881Y-63209099D01*
X172916720Y-63266480D01*
X172720000Y-63285855D01*
X172523281Y-63266480D01*
X172334120Y-63209099D01*
X172159788Y-63115917D01*
X172006985Y-62990515D01*
X171881583Y-62837712D01*
X171788401Y-62663381D01*
X171731020Y-62474220D01*
X171716500Y-62326794D01*
X171716500Y-62133207D01*
X171731020Y-61985781D01*
X171788401Y-61796620D01*
X171881583Y-61622288D01*
X172006985Y-61469485D01*
X172159788Y-61344083D01*
X172334119Y-61250901D01*
X172523280Y-61193520D01*
X172720000Y-61174145D01*
X172916719Y-61193520D01*
X172916719Y-61193520D01*
G37*
G36*
X190696719Y-61193520D02*
X190885880Y-61250901D01*
X191060212Y-61344083D01*
X191213015Y-61469485D01*
X191338417Y-61622288D01*
X191431599Y-61796619D01*
X191488980Y-61985780D01*
X191503500Y-62133206D01*
X191503500Y-62326793D01*
X191488980Y-62474219D01*
X191431599Y-62663380D01*
X191338417Y-62837712D01*
X191213015Y-62990515D01*
X191060212Y-63115917D01*
X190885881Y-63209099D01*
X190696720Y-63266480D01*
X190500000Y-63285855D01*
X190303281Y-63266480D01*
X190114120Y-63209099D01*
X189939788Y-63115917D01*
X189786985Y-62990515D01*
X189661583Y-62837712D01*
X189568401Y-62663381D01*
X189511020Y-62474220D01*
X189496500Y-62326794D01*
X189496500Y-62133207D01*
X189511020Y-61985781D01*
X189568401Y-61796620D01*
X189661583Y-61622288D01*
X189786985Y-61469485D01*
X189939788Y-61344083D01*
X190114119Y-61250901D01*
X190303280Y-61193520D01*
X190500000Y-61174145D01*
X190696719Y-61193520D01*
X190696719Y-61193520D01*
G37*
G36*
X204666719Y-61193520D02*
X204855880Y-61250901D01*
X205030212Y-61344083D01*
X205183015Y-61469485D01*
X205308417Y-61622288D01*
X205401599Y-61796619D01*
X205458980Y-61985780D01*
X205473500Y-62133206D01*
X205473500Y-62326793D01*
X205458980Y-62474219D01*
X205401599Y-62663380D01*
X205308417Y-62837712D01*
X205183015Y-62990515D01*
X205030212Y-63115917D01*
X204855881Y-63209099D01*
X204666720Y-63266480D01*
X204470000Y-63285855D01*
X204273281Y-63266480D01*
X204084120Y-63209099D01*
X203909788Y-63115917D01*
X203756985Y-62990515D01*
X203631583Y-62837712D01*
X203538401Y-62663381D01*
X203481020Y-62474220D01*
X203466500Y-62326794D01*
X203466500Y-62133207D01*
X203481020Y-61985781D01*
X203538401Y-61796620D01*
X203631583Y-61622288D01*
X203756985Y-61469485D01*
X203909788Y-61344083D01*
X204084119Y-61250901D01*
X204273280Y-61193520D01*
X204470000Y-61174145D01*
X204666719Y-61193520D01*
X204666719Y-61193520D01*
G37*
G36*
X207206719Y-61193520D02*
X207395880Y-61250901D01*
X207570212Y-61344083D01*
X207723015Y-61469485D01*
X207848417Y-61622288D01*
X207941599Y-61796619D01*
X207998980Y-61985780D01*
X208013500Y-62133206D01*
X208013500Y-62326793D01*
X207998980Y-62474219D01*
X207941599Y-62663380D01*
X207848417Y-62837712D01*
X207723015Y-62990515D01*
X207570212Y-63115917D01*
X207395881Y-63209099D01*
X207206720Y-63266480D01*
X207010000Y-63285855D01*
X206813281Y-63266480D01*
X206624120Y-63209099D01*
X206449788Y-63115917D01*
X206296985Y-62990515D01*
X206171583Y-62837712D01*
X206078401Y-62663381D01*
X206021020Y-62474220D01*
X206006500Y-62326794D01*
X206006500Y-62133207D01*
X206021020Y-61985781D01*
X206078401Y-61796620D01*
X206171583Y-61622288D01*
X206296985Y-61469485D01*
X206449788Y-61344083D01*
X206624119Y-61250901D01*
X206813280Y-61193520D01*
X207010000Y-61174145D01*
X207206719Y-61193520D01*
X207206719Y-61193520D01*
G37*
G36*
X193236719Y-61193520D02*
X193425880Y-61250901D01*
X193600212Y-61344083D01*
X193753015Y-61469485D01*
X193878417Y-61622288D01*
X193971599Y-61796619D01*
X194028980Y-61985780D01*
X194043500Y-62133206D01*
X194043500Y-62326793D01*
X194028980Y-62474219D01*
X193971599Y-62663380D01*
X193878417Y-62837712D01*
X193753015Y-62990515D01*
X193600212Y-63115917D01*
X193425881Y-63209099D01*
X193236720Y-63266480D01*
X193040000Y-63285855D01*
X192843281Y-63266480D01*
X192654120Y-63209099D01*
X192479788Y-63115917D01*
X192326985Y-62990515D01*
X192201583Y-62837712D01*
X192108401Y-62663381D01*
X192051020Y-62474220D01*
X192036500Y-62326794D01*
X192036500Y-62133207D01*
X192051020Y-61985781D01*
X192108401Y-61796620D01*
X192201583Y-61622288D01*
X192326985Y-61469485D01*
X192479788Y-61344083D01*
X192654119Y-61250901D01*
X192843280Y-61193520D01*
X193040000Y-61174145D01*
X193236719Y-61193520D01*
X193236719Y-61193520D01*
G37*
G36*
X202933500Y-63281000D02*
X200926500Y-63281000D01*
X200926500Y-61179000D01*
X202933500Y-61179000D01*
X202933500Y-63281000D01*
X202933500Y-63281000D01*
G37*
G36*
X154673500Y-63281000D02*
X152666500Y-63281000D01*
X152666500Y-61179000D01*
X154673500Y-61179000D01*
X154673500Y-63281000D01*
X154673500Y-63281000D01*
G37*
G36*
X188963500Y-63281000D02*
X186956500Y-63281000D01*
X186956500Y-61179000D01*
X188963500Y-61179000D01*
X188963500Y-63281000D01*
X188963500Y-63281000D01*
G37*
G36*
X168643500Y-63281000D02*
X166636500Y-63281000D01*
X166636500Y-61179000D01*
X168643500Y-61179000D01*
X168643500Y-63281000D01*
X168643500Y-63281000D01*
G37*
G36*
X179182916Y-60167334D02*
X179291492Y-60200271D01*
X179391557Y-60253756D01*
X179479264Y-60325736D01*
X179551244Y-60413443D01*
X179604729Y-60513508D01*
X179637666Y-60622084D01*
X179646000Y-60706703D01*
X179646000Y-61213298D01*
X179637666Y-61297916D01*
X179604729Y-61406492D01*
X179551244Y-61506557D01*
X179479264Y-61594264D01*
X179391556Y-61666244D01*
X179291491Y-61719729D01*
X179182915Y-61752666D01*
X179070000Y-61763787D01*
X178957084Y-61752666D01*
X178848508Y-61719729D01*
X178748443Y-61666244D01*
X178660736Y-61594264D01*
X178588756Y-61506556D01*
X178535271Y-61406491D01*
X178502334Y-61297915D01*
X178494000Y-61213297D01*
X178494000Y-60706702D01*
X178502334Y-60622084D01*
X178535271Y-60513508D01*
X178588757Y-60413443D01*
X178660737Y-60325736D01*
X178748444Y-60253756D01*
X178848509Y-60200271D01*
X178957085Y-60167334D01*
X179070000Y-60156213D01*
X179182916Y-60167334D01*
X179182916Y-60167334D01*
G37*
G36*
X182186000Y-61761000D02*
X181034000Y-61761000D01*
X181034000Y-60159000D01*
X182186000Y-60159000D01*
X182186000Y-61761000D01*
X182186000Y-61761000D01*
G37*
G36*
X196923677Y-60213465D02*
X196961364Y-60224898D01*
X196996103Y-60243466D01*
X197026548Y-60268452D01*
X197051534Y-60298897D01*
X197070102Y-60333636D01*
X197081535Y-60371323D01*
X197086000Y-60416661D01*
X197086000Y-61503339D01*
X197081535Y-61548677D01*
X197070102Y-61586364D01*
X197051534Y-61621103D01*
X197026548Y-61651548D01*
X196996103Y-61676534D01*
X196961364Y-61695102D01*
X196923677Y-61706535D01*
X196878339Y-61711000D01*
X196041661Y-61711000D01*
X195996323Y-61706535D01*
X195958636Y-61695102D01*
X195923897Y-61676534D01*
X195893452Y-61651548D01*
X195868466Y-61621103D01*
X195849898Y-61586364D01*
X195838465Y-61548677D01*
X195834000Y-61503339D01*
X195834000Y-60416661D01*
X195838465Y-60371323D01*
X195849898Y-60333636D01*
X195868466Y-60298897D01*
X195893452Y-60268452D01*
X195923897Y-60243466D01*
X195958636Y-60224898D01*
X195996323Y-60213465D01*
X196041661Y-60209000D01*
X196878339Y-60209000D01*
X196923677Y-60213465D01*
X196923677Y-60213465D01*
G37*
G36*
X164683677Y-60213465D02*
X164721364Y-60224898D01*
X164756103Y-60243466D01*
X164786548Y-60268452D01*
X164811534Y-60298897D01*
X164830102Y-60333636D01*
X164841535Y-60371323D01*
X164846000Y-60416661D01*
X164846000Y-61503339D01*
X164841535Y-61548677D01*
X164830102Y-61586364D01*
X164811534Y-61621103D01*
X164786548Y-61651548D01*
X164756103Y-61676534D01*
X164721364Y-61695102D01*
X164683677Y-61706535D01*
X164638339Y-61711000D01*
X163801661Y-61711000D01*
X163756323Y-61706535D01*
X163718636Y-61695102D01*
X163683897Y-61676534D01*
X163653452Y-61651548D01*
X163628466Y-61621103D01*
X163609898Y-61586364D01*
X163598465Y-61548677D01*
X163594000Y-61503339D01*
X163594000Y-60416661D01*
X163598465Y-60371323D01*
X163609898Y-60333636D01*
X163628466Y-60298897D01*
X163653452Y-60268452D01*
X163683897Y-60243466D01*
X163718636Y-60224898D01*
X163756323Y-60213465D01*
X163801661Y-60209000D01*
X164638339Y-60209000D01*
X164683677Y-60213465D01*
X164683677Y-60213465D01*
G37*
G36*
X162633677Y-60213465D02*
X162671364Y-60224898D01*
X162706103Y-60243466D01*
X162736548Y-60268452D01*
X162761534Y-60298897D01*
X162780102Y-60333636D01*
X162791535Y-60371323D01*
X162796000Y-60416661D01*
X162796000Y-61503339D01*
X162791535Y-61548677D01*
X162780102Y-61586364D01*
X162761534Y-61621103D01*
X162736548Y-61651548D01*
X162706103Y-61676534D01*
X162671364Y-61695102D01*
X162633677Y-61706535D01*
X162588339Y-61711000D01*
X161751661Y-61711000D01*
X161706323Y-61706535D01*
X161668636Y-61695102D01*
X161633897Y-61676534D01*
X161603452Y-61651548D01*
X161578466Y-61621103D01*
X161559898Y-61586364D01*
X161548465Y-61548677D01*
X161544000Y-61503339D01*
X161544000Y-60416661D01*
X161548465Y-60371323D01*
X161559898Y-60333636D01*
X161578466Y-60298897D01*
X161603452Y-60268452D01*
X161633897Y-60243466D01*
X161668636Y-60224898D01*
X161706323Y-60213465D01*
X161751661Y-60209000D01*
X162588339Y-60209000D01*
X162633677Y-60213465D01*
X162633677Y-60213465D01*
G37*
G36*
X198973677Y-60213465D02*
X199011364Y-60224898D01*
X199046103Y-60243466D01*
X199076548Y-60268452D01*
X199101534Y-60298897D01*
X199120102Y-60333636D01*
X199131535Y-60371323D01*
X199136000Y-60416661D01*
X199136000Y-61503339D01*
X199131535Y-61548677D01*
X199120102Y-61586364D01*
X199101534Y-61621103D01*
X199076548Y-61651548D01*
X199046103Y-61676534D01*
X199011364Y-61695102D01*
X198973677Y-61706535D01*
X198928339Y-61711000D01*
X198091661Y-61711000D01*
X198046323Y-61706535D01*
X198008636Y-61695102D01*
X197973897Y-61676534D01*
X197943452Y-61651548D01*
X197918466Y-61621103D01*
X197899898Y-61586364D01*
X197888465Y-61548677D01*
X197884000Y-61503339D01*
X197884000Y-60416661D01*
X197888465Y-60371323D01*
X197899898Y-60333636D01*
X197918466Y-60298897D01*
X197943452Y-60268452D01*
X197973897Y-60243466D01*
X198008636Y-60224898D01*
X198046323Y-60213465D01*
X198091661Y-60209000D01*
X198928339Y-60209000D01*
X198973677Y-60213465D01*
X198973677Y-60213465D01*
G37*
G36*
X140385786Y-50995462D02*
X140385788Y-50995463D01*
X140385789Y-50995463D01*
X141032029Y-51263144D01*
X141032030Y-51263145D01*
X141613634Y-51651760D01*
X142108240Y-52146366D01*
X142108242Y-52146369D01*
X142496856Y-52727971D01*
X142764537Y-53374211D01*
X142901000Y-54060257D01*
X142901000Y-54759743D01*
X142764537Y-55445789D01*
X142496856Y-56092029D01*
X142496855Y-56092030D01*
X142108240Y-56673634D01*
X141613634Y-57168240D01*
X141613631Y-57168242D01*
X141032029Y-57556856D01*
X140385789Y-57824537D01*
X140385788Y-57824537D01*
X140385786Y-57824538D01*
X139699744Y-57961000D01*
X139000256Y-57961000D01*
X138314214Y-57824538D01*
X138314212Y-57824537D01*
X138314211Y-57824537D01*
X137667971Y-57556856D01*
X137086369Y-57168242D01*
X137086366Y-57168240D01*
X136591760Y-56673634D01*
X136203145Y-56092030D01*
X136203144Y-56092029D01*
X135935463Y-55445789D01*
X135799000Y-54759743D01*
X135799000Y-54060257D01*
X135935463Y-53374211D01*
X136203144Y-52727971D01*
X136591758Y-52146369D01*
X136591760Y-52146366D01*
X137086366Y-51651760D01*
X137667970Y-51263145D01*
X137667971Y-51263144D01*
X138314211Y-50995463D01*
X138314212Y-50995463D01*
X138314214Y-50995462D01*
X139000256Y-50859000D01*
X139699744Y-50859000D01*
X140385786Y-50995462D01*
X140385786Y-50995462D01*
G37*
G36*
X222385786Y-50995462D02*
X222385788Y-50995463D01*
X222385789Y-50995463D01*
X223032029Y-51263144D01*
X223032030Y-51263145D01*
X223613634Y-51651760D01*
X224108240Y-52146366D01*
X224108242Y-52146369D01*
X224496856Y-52727971D01*
X224764537Y-53374211D01*
X224901000Y-54060257D01*
X224901000Y-54759743D01*
X224764537Y-55445789D01*
X224496856Y-56092029D01*
X224496855Y-56092030D01*
X224108240Y-56673634D01*
X223613634Y-57168240D01*
X223613631Y-57168242D01*
X223032029Y-57556856D01*
X222385789Y-57824537D01*
X222385788Y-57824537D01*
X222385786Y-57824538D01*
X221699744Y-57961000D01*
X221000256Y-57961000D01*
X220314214Y-57824538D01*
X220314212Y-57824537D01*
X220314211Y-57824537D01*
X219667971Y-57556856D01*
X219086369Y-57168242D01*
X219086366Y-57168240D01*
X218591760Y-56673634D01*
X218203145Y-56092030D01*
X218203144Y-56092029D01*
X217935463Y-55445789D01*
X217799000Y-54759743D01*
X217799000Y-54060257D01*
X217935463Y-53374211D01*
X218203144Y-52727971D01*
X218591758Y-52146369D01*
X218591760Y-52146366D01*
X219086366Y-51651760D01*
X219667970Y-51263145D01*
X219667971Y-51263144D01*
X220314211Y-50995463D01*
X220314212Y-50995463D01*
X220314214Y-50995462D01*
X221000256Y-50859000D01*
X221699744Y-50859000D01*
X222385786Y-50995462D01*
X222385786Y-50995462D01*
G37*
G36*
X140475562Y-47300681D02*
X140510477Y-47311273D01*
X140542665Y-47328478D01*
X140570873Y-47351627D01*
X140594022Y-47379835D01*
X140611227Y-47412023D01*
X140621819Y-47446938D01*
X140626000Y-47489395D01*
X140626000Y-48630605D01*
X140621819Y-48673062D01*
X140611227Y-48707977D01*
X140594022Y-48740165D01*
X140570873Y-48768373D01*
X140542665Y-48791522D01*
X140510477Y-48808727D01*
X140475562Y-48819319D01*
X140433105Y-48823500D01*
X138966895Y-48823500D01*
X138924438Y-48819319D01*
X138889523Y-48808727D01*
X138857335Y-48791522D01*
X138829127Y-48768373D01*
X138805978Y-48740165D01*
X138788773Y-48707977D01*
X138778181Y-48673062D01*
X138774000Y-48630605D01*
X138774000Y-47489395D01*
X138778181Y-47446938D01*
X138788773Y-47412023D01*
X138805978Y-47379835D01*
X138829127Y-47351627D01*
X138857335Y-47328478D01*
X138889523Y-47311273D01*
X138924438Y-47300681D01*
X138966895Y-47296500D01*
X140433105Y-47296500D01*
X140475562Y-47300681D01*
X140475562Y-47300681D01*
G37*
G36*
X209902527Y-45613736D02*
X210002410Y-45633604D01*
X210284674Y-45750521D01*
X210538705Y-45920259D01*
X210754741Y-46136295D01*
X210924479Y-46390326D01*
X211041396Y-46672590D01*
X211041396Y-46672591D01*
X211101000Y-46972238D01*
X211101000Y-47277762D01*
X211064515Y-47461184D01*
X211041396Y-47577410D01*
X210924479Y-47859674D01*
X210754741Y-48113705D01*
X210538705Y-48329741D01*
X210284674Y-48499479D01*
X210002410Y-48616396D01*
X209930976Y-48630605D01*
X209702762Y-48676000D01*
X209397238Y-48676000D01*
X209169024Y-48630605D01*
X209097590Y-48616396D01*
X208815326Y-48499479D01*
X208561295Y-48329741D01*
X208345259Y-48113705D01*
X208175521Y-47859674D01*
X208058604Y-47577410D01*
X208035485Y-47461184D01*
X207999000Y-47277762D01*
X207999000Y-46972238D01*
X208058604Y-46672591D01*
X208058604Y-46672590D01*
X208175521Y-46390326D01*
X208345259Y-46136295D01*
X208561295Y-45920259D01*
X208815326Y-45750521D01*
X209097590Y-45633604D01*
X209197473Y-45613736D01*
X209397238Y-45574000D01*
X209702762Y-45574000D01*
X209902527Y-45613736D01*
X209902527Y-45613736D01*
G37*
G36*
X152117527Y-45613736D02*
X152217410Y-45633604D01*
X152499674Y-45750521D01*
X152753705Y-45920259D01*
X152969741Y-46136295D01*
X153139479Y-46390326D01*
X153256396Y-46672590D01*
X153256396Y-46672591D01*
X153316000Y-46972238D01*
X153316000Y-47277762D01*
X153279515Y-47461184D01*
X153256396Y-47577410D01*
X153139479Y-47859674D01*
X152969741Y-48113705D01*
X152753705Y-48329741D01*
X152499674Y-48499479D01*
X152217410Y-48616396D01*
X152145976Y-48630605D01*
X151917762Y-48676000D01*
X151612238Y-48676000D01*
X151384024Y-48630605D01*
X151312590Y-48616396D01*
X151030326Y-48499479D01*
X150776295Y-48329741D01*
X150560259Y-48113705D01*
X150390521Y-47859674D01*
X150273604Y-47577410D01*
X150250485Y-47461184D01*
X150214000Y-47277762D01*
X150214000Y-46972238D01*
X150273604Y-46672591D01*
X150273604Y-46672590D01*
X150390521Y-46390326D01*
X150560259Y-46136295D01*
X150776295Y-45920259D01*
X151030326Y-45750521D01*
X151312590Y-45633604D01*
X151412473Y-45613736D01*
X151612238Y-45574000D01*
X151917762Y-45574000D01*
X152117527Y-45613736D01*
X152117527Y-45613736D01*
G37*
G36*
X167888228Y-46806703D02*
X168043100Y-46870853D01*
X168182481Y-46963985D01*
X168301015Y-47082519D01*
X168394147Y-47221900D01*
X168458297Y-47376772D01*
X168491000Y-47541184D01*
X168491000Y-47708816D01*
X168458297Y-47873228D01*
X168394147Y-48028100D01*
X168301015Y-48167481D01*
X168182481Y-48286015D01*
X168043100Y-48379147D01*
X167888228Y-48443297D01*
X167723816Y-48476000D01*
X167556184Y-48476000D01*
X167391772Y-48443297D01*
X167236900Y-48379147D01*
X167097519Y-48286015D01*
X166978985Y-48167481D01*
X166885853Y-48028100D01*
X166821703Y-47873228D01*
X166789000Y-47708816D01*
X166789000Y-47541184D01*
X166821703Y-47376772D01*
X166885853Y-47221900D01*
X166978985Y-47082519D01*
X167097519Y-46963985D01*
X167236900Y-46870853D01*
X167391772Y-46806703D01*
X167556184Y-46774000D01*
X167723816Y-46774000D01*
X167888228Y-46806703D01*
X167888228Y-46806703D01*
G37*
G36*
X193923228Y-46726703D02*
X194078100Y-46790853D01*
X194217481Y-46883985D01*
X194336015Y-47002519D01*
X194429147Y-47141900D01*
X194493297Y-47296772D01*
X194526000Y-47461184D01*
X194526000Y-47628816D01*
X194493297Y-47793228D01*
X194429147Y-47948100D01*
X194336015Y-48087481D01*
X194217481Y-48206015D01*
X194078100Y-48299147D01*
X193923228Y-48363297D01*
X193758816Y-48396000D01*
X193591184Y-48396000D01*
X193426772Y-48363297D01*
X193271900Y-48299147D01*
X193132519Y-48206015D01*
X193013985Y-48087481D01*
X192920853Y-47948100D01*
X192856703Y-47793228D01*
X192824000Y-47628816D01*
X192824000Y-47461184D01*
X192856703Y-47296772D01*
X192920853Y-47141900D01*
X193013985Y-47002519D01*
X193132519Y-46883985D01*
X193271900Y-46790853D01*
X193426772Y-46726703D01*
X193591184Y-46694000D01*
X193758816Y-46694000D01*
X193923228Y-46726703D01*
X193923228Y-46726703D01*
G37*
G36*
X221755562Y-46865681D02*
X221790477Y-46876273D01*
X221822665Y-46893478D01*
X221850873Y-46916627D01*
X221874022Y-46944835D01*
X221891227Y-46977023D01*
X221901819Y-47011938D01*
X221906000Y-47054395D01*
X221906000Y-48195605D01*
X221901819Y-48238062D01*
X221891227Y-48272977D01*
X221874022Y-48305165D01*
X221850873Y-48333373D01*
X221822665Y-48356522D01*
X221790477Y-48373727D01*
X221755562Y-48384319D01*
X221713105Y-48388500D01*
X220246895Y-48388500D01*
X220204438Y-48384319D01*
X220169523Y-48373727D01*
X220137335Y-48356522D01*
X220109127Y-48333373D01*
X220085978Y-48305165D01*
X220068773Y-48272977D01*
X220058181Y-48238062D01*
X220054000Y-48195605D01*
X220054000Y-47054395D01*
X220058181Y-47011938D01*
X220068773Y-46977023D01*
X220085978Y-46944835D01*
X220109127Y-46916627D01*
X220137335Y-46893478D01*
X220169523Y-46876273D01*
X220204438Y-46865681D01*
X220246895Y-46861500D01*
X221713105Y-46861500D01*
X221755562Y-46865681D01*
X221755562Y-46865681D01*
G37*
G36*
X214608062Y-45618181D02*
X214642977Y-45628773D01*
X214675165Y-45645978D01*
X214703373Y-45669127D01*
X214726522Y-45697335D01*
X214743727Y-45729523D01*
X214754319Y-45764438D01*
X214758500Y-45806895D01*
X214758500Y-48173105D01*
X214754319Y-48215562D01*
X214743727Y-48250477D01*
X214726522Y-48282665D01*
X214703373Y-48310873D01*
X214675165Y-48334022D01*
X214642977Y-48351227D01*
X214608062Y-48361819D01*
X214565605Y-48366000D01*
X213424395Y-48366000D01*
X213381938Y-48361819D01*
X213347023Y-48351227D01*
X213314835Y-48334022D01*
X213286627Y-48310873D01*
X213263478Y-48282665D01*
X213246273Y-48250477D01*
X213235681Y-48215562D01*
X213231500Y-48173105D01*
X213231500Y-45806895D01*
X213235681Y-45764438D01*
X213246273Y-45729523D01*
X213263478Y-45697335D01*
X213286627Y-45669127D01*
X213314835Y-45645978D01*
X213347023Y-45628773D01*
X213381938Y-45618181D01*
X213424395Y-45614000D01*
X214565605Y-45614000D01*
X214608062Y-45618181D01*
X214608062Y-45618181D01*
G37*
G36*
X144958062Y-45618181D02*
X144992977Y-45628773D01*
X145025165Y-45645978D01*
X145053373Y-45669127D01*
X145076522Y-45697335D01*
X145093727Y-45729523D01*
X145104319Y-45764438D01*
X145108500Y-45806895D01*
X145108500Y-48173105D01*
X145104319Y-48215562D01*
X145093727Y-48250477D01*
X145076522Y-48282665D01*
X145053373Y-48310873D01*
X145025165Y-48334022D01*
X144992977Y-48351227D01*
X144958062Y-48361819D01*
X144915605Y-48366000D01*
X143774395Y-48366000D01*
X143731938Y-48361819D01*
X143697023Y-48351227D01*
X143664835Y-48334022D01*
X143636627Y-48310873D01*
X143613478Y-48282665D01*
X143596273Y-48250477D01*
X143585681Y-48215562D01*
X143581500Y-48173105D01*
X143581500Y-45806895D01*
X143585681Y-45764438D01*
X143596273Y-45729523D01*
X143613478Y-45697335D01*
X143636627Y-45669127D01*
X143664835Y-45645978D01*
X143697023Y-45628773D01*
X143731938Y-45618181D01*
X143774395Y-45614000D01*
X144915605Y-45614000D01*
X144958062Y-45618181D01*
X144958062Y-45618181D01*
G37*
G36*
X147933062Y-45618181D02*
X147967977Y-45628773D01*
X148000165Y-45645978D01*
X148028373Y-45669127D01*
X148051522Y-45697335D01*
X148068727Y-45729523D01*
X148079319Y-45764438D01*
X148083500Y-45806895D01*
X148083500Y-48173105D01*
X148079319Y-48215562D01*
X148068727Y-48250477D01*
X148051522Y-48282665D01*
X148028373Y-48310873D01*
X148000165Y-48334022D01*
X147967977Y-48351227D01*
X147933062Y-48361819D01*
X147890605Y-48366000D01*
X146749395Y-48366000D01*
X146706938Y-48361819D01*
X146672023Y-48351227D01*
X146639835Y-48334022D01*
X146611627Y-48310873D01*
X146588478Y-48282665D01*
X146571273Y-48250477D01*
X146560681Y-48215562D01*
X146556500Y-48173105D01*
X146556500Y-45806895D01*
X146560681Y-45764438D01*
X146571273Y-45729523D01*
X146588478Y-45697335D01*
X146611627Y-45669127D01*
X146639835Y-45645978D01*
X146672023Y-45628773D01*
X146706938Y-45618181D01*
X146749395Y-45614000D01*
X147890605Y-45614000D01*
X147933062Y-45618181D01*
X147933062Y-45618181D01*
G37*
G36*
X217583062Y-45618181D02*
X217617977Y-45628773D01*
X217650165Y-45645978D01*
X217678373Y-45669127D01*
X217701522Y-45697335D01*
X217718727Y-45729523D01*
X217729319Y-45764438D01*
X217733500Y-45806895D01*
X217733500Y-48173105D01*
X217729319Y-48215562D01*
X217718727Y-48250477D01*
X217701522Y-48282665D01*
X217678373Y-48310873D01*
X217650165Y-48334022D01*
X217617977Y-48351227D01*
X217583062Y-48361819D01*
X217540605Y-48366000D01*
X216399395Y-48366000D01*
X216356938Y-48361819D01*
X216322023Y-48351227D01*
X216289835Y-48334022D01*
X216261627Y-48310873D01*
X216238478Y-48282665D01*
X216221273Y-48250477D01*
X216210681Y-48215562D01*
X216206500Y-48173105D01*
X216206500Y-45806895D01*
X216210681Y-45764438D01*
X216221273Y-45729523D01*
X216238478Y-45697335D01*
X216261627Y-45669127D01*
X216289835Y-45645978D01*
X216322023Y-45628773D01*
X216356938Y-45618181D01*
X216399395Y-45614000D01*
X217540605Y-45614000D01*
X217583062Y-45618181D01*
X217583062Y-45618181D01*
G37*
G36*
X188538636Y-44481019D02*
X188719903Y-44517075D01*
X188947571Y-44611378D01*
X189151542Y-44747668D01*
X189152469Y-44748287D01*
X189326713Y-44922531D01*
X189326715Y-44922534D01*
X189463622Y-45127429D01*
X189557925Y-45355097D01*
X189568518Y-45408352D01*
X189606000Y-45596786D01*
X189606000Y-45843214D01*
X189598306Y-45881895D01*
X189557925Y-46084903D01*
X189463622Y-46312571D01*
X189411666Y-46390328D01*
X189326713Y-46517469D01*
X189152469Y-46691713D01*
X189152466Y-46691715D01*
X188947571Y-46828622D01*
X188719903Y-46922925D01*
X188538636Y-46958981D01*
X188478214Y-46971000D01*
X188231786Y-46971000D01*
X188171364Y-46958981D01*
X187990097Y-46922925D01*
X187762429Y-46828622D01*
X187557534Y-46691715D01*
X187557531Y-46691713D01*
X187383287Y-46517469D01*
X187298334Y-46390328D01*
X187246378Y-46312571D01*
X187152075Y-46084903D01*
X187111694Y-45881895D01*
X187104000Y-45843214D01*
X187104000Y-45596786D01*
X187141482Y-45408352D01*
X187152075Y-45355097D01*
X187246378Y-45127429D01*
X187383285Y-44922534D01*
X187383287Y-44922531D01*
X187557531Y-44748287D01*
X187558458Y-44747668D01*
X187762429Y-44611378D01*
X187990097Y-44517075D01*
X188171364Y-44481019D01*
X188231786Y-44469000D01*
X188478214Y-44469000D01*
X188538636Y-44481019D01*
X188538636Y-44481019D01*
G37*
G36*
X173538636Y-44481019D02*
X173719903Y-44517075D01*
X173947571Y-44611378D01*
X174151542Y-44747668D01*
X174152469Y-44748287D01*
X174326713Y-44922531D01*
X174326715Y-44922534D01*
X174463622Y-45127429D01*
X174557925Y-45355097D01*
X174568518Y-45408352D01*
X174606000Y-45596786D01*
X174606000Y-45843214D01*
X174598306Y-45881895D01*
X174557925Y-46084903D01*
X174463622Y-46312571D01*
X174411666Y-46390328D01*
X174326713Y-46517469D01*
X174152469Y-46691713D01*
X174152466Y-46691715D01*
X173947571Y-46828622D01*
X173719903Y-46922925D01*
X173538636Y-46958981D01*
X173478214Y-46971000D01*
X173231786Y-46971000D01*
X173171364Y-46958981D01*
X172990097Y-46922925D01*
X172762429Y-46828622D01*
X172557534Y-46691715D01*
X172557531Y-46691713D01*
X172383287Y-46517469D01*
X172298334Y-46390328D01*
X172246378Y-46312571D01*
X172152075Y-46084903D01*
X172111694Y-45881895D01*
X172104000Y-45843214D01*
X172104000Y-45596786D01*
X172141482Y-45408352D01*
X172152075Y-45355097D01*
X172246378Y-45127429D01*
X172383285Y-44922534D01*
X172383287Y-44922531D01*
X172557531Y-44748287D01*
X172558458Y-44747668D01*
X172762429Y-44611378D01*
X172990097Y-44517075D01*
X173171364Y-44481019D01*
X173231786Y-44469000D01*
X173478214Y-44469000D01*
X173538636Y-44481019D01*
X173538636Y-44481019D01*
G37*
G36*
X140475562Y-44325681D02*
X140510477Y-44336273D01*
X140542665Y-44353478D01*
X140570873Y-44376627D01*
X140594022Y-44404835D01*
X140611227Y-44437023D01*
X140621819Y-44471938D01*
X140626000Y-44514395D01*
X140626000Y-45655605D01*
X140621819Y-45698062D01*
X140611227Y-45732977D01*
X140594022Y-45765165D01*
X140570873Y-45793373D01*
X140542665Y-45816522D01*
X140510477Y-45833727D01*
X140475562Y-45844319D01*
X140433105Y-45848500D01*
X138966895Y-45848500D01*
X138924438Y-45844319D01*
X138889523Y-45833727D01*
X138857335Y-45816522D01*
X138829127Y-45793373D01*
X138805978Y-45765165D01*
X138788773Y-45732977D01*
X138778181Y-45698062D01*
X138774000Y-45655605D01*
X138774000Y-44514395D01*
X138778181Y-44471938D01*
X138788773Y-44437023D01*
X138805978Y-44404835D01*
X138829127Y-44376627D01*
X138857335Y-44353478D01*
X138889523Y-44336273D01*
X138924438Y-44325681D01*
X138966895Y-44321500D01*
X140433105Y-44321500D01*
X140475562Y-44325681D01*
X140475562Y-44325681D01*
G37*
G36*
X221755562Y-43890681D02*
X221790477Y-43901273D01*
X221822665Y-43918478D01*
X221850873Y-43941627D01*
X221874022Y-43969835D01*
X221891227Y-44002023D01*
X221901819Y-44036938D01*
X221906000Y-44079395D01*
X221906000Y-45220605D01*
X221901819Y-45263062D01*
X221891227Y-45297977D01*
X221874022Y-45330165D01*
X221850873Y-45358373D01*
X221822665Y-45381522D01*
X221790477Y-45398727D01*
X221755562Y-45409319D01*
X221713105Y-45413500D01*
X220246895Y-45413500D01*
X220204438Y-45409319D01*
X220169523Y-45398727D01*
X220137335Y-45381522D01*
X220109127Y-45358373D01*
X220085978Y-45330165D01*
X220068773Y-45297977D01*
X220058181Y-45263062D01*
X220054000Y-45220605D01*
X220054000Y-44079395D01*
X220058181Y-44036938D01*
X220068773Y-44002023D01*
X220085978Y-43969835D01*
X220109127Y-43941627D01*
X220137335Y-43918478D01*
X220169523Y-43901273D01*
X220204438Y-43890681D01*
X220246895Y-43886500D01*
X221713105Y-43886500D01*
X221755562Y-43890681D01*
X221755562Y-43890681D01*
G37*
G36*
X167888228Y-41806703D02*
X168043100Y-41870853D01*
X168182481Y-41963985D01*
X168301015Y-42082519D01*
X168394147Y-42221900D01*
X168458297Y-42376772D01*
X168491000Y-42541184D01*
X168491000Y-42708816D01*
X168458297Y-42873228D01*
X168394147Y-43028100D01*
X168301015Y-43167481D01*
X168182481Y-43286015D01*
X168043100Y-43379147D01*
X167888228Y-43443297D01*
X167723816Y-43476000D01*
X167556184Y-43476000D01*
X167391772Y-43443297D01*
X167236900Y-43379147D01*
X167097519Y-43286015D01*
X166978985Y-43167481D01*
X166885853Y-43028100D01*
X166821703Y-42873228D01*
X166789000Y-42708816D01*
X166789000Y-42541184D01*
X166821703Y-42376772D01*
X166885853Y-42221900D01*
X166978985Y-42082519D01*
X167097519Y-41963985D01*
X167236900Y-41870853D01*
X167391772Y-41806703D01*
X167556184Y-41774000D01*
X167723816Y-41774000D01*
X167888228Y-41806703D01*
X167888228Y-41806703D01*
G37*
G36*
X193923228Y-41726703D02*
X194078100Y-41790853D01*
X194217481Y-41883985D01*
X194336015Y-42002519D01*
X194429147Y-42141900D01*
X194493297Y-42296772D01*
X194526000Y-42461184D01*
X194526000Y-42628816D01*
X194493297Y-42793228D01*
X194429147Y-42948100D01*
X194336015Y-43087481D01*
X194217481Y-43206015D01*
X194078100Y-43299147D01*
X193923228Y-43363297D01*
X193758816Y-43396000D01*
X193591184Y-43396000D01*
X193426772Y-43363297D01*
X193271900Y-43299147D01*
X193132519Y-43206015D01*
X193013985Y-43087481D01*
X192920853Y-42948100D01*
X192856703Y-42793228D01*
X192824000Y-42628816D01*
X192824000Y-42461184D01*
X192856703Y-42296772D01*
X192920853Y-42141900D01*
X193013985Y-42002519D01*
X193132519Y-41883985D01*
X193271900Y-41790853D01*
X193426772Y-41726703D01*
X193591184Y-41694000D01*
X193758816Y-41694000D01*
X193923228Y-41726703D01*
X193923228Y-41726703D01*
G37*
G36*
X226435256Y-35221298D02*
X226541579Y-35242447D01*
X226842042Y-35366903D01*
X226974668Y-35455521D01*
X227112454Y-35547587D01*
X227342413Y-35777546D01*
X227523098Y-36047960D01*
X227542718Y-36095328D01*
X227627281Y-36299479D01*
X227647553Y-36348422D01*
X227711000Y-36667389D01*
X227711000Y-36992611D01*
X227647553Y-37311578D01*
X227523098Y-37612040D01*
X227342413Y-37882454D01*
X227112454Y-38112413D01*
X227112451Y-38112415D01*
X226842042Y-38293097D01*
X226541579Y-38417553D01*
X226435256Y-38438702D01*
X226222611Y-38481000D01*
X225897389Y-38481000D01*
X225684744Y-38438702D01*
X225578421Y-38417553D01*
X225277958Y-38293097D01*
X225007549Y-38112415D01*
X225007546Y-38112413D01*
X224777587Y-37882454D01*
X224596902Y-37612040D01*
X224472447Y-37311578D01*
X224409000Y-36992611D01*
X224409000Y-36667389D01*
X224472447Y-36348422D01*
X224492720Y-36299479D01*
X224577282Y-36095328D01*
X224596902Y-36047960D01*
X224777587Y-35777546D01*
X225007546Y-35547587D01*
X225145332Y-35455521D01*
X225277958Y-35366903D01*
X225578421Y-35242447D01*
X225684744Y-35221298D01*
X225897389Y-35179000D01*
X226222611Y-35179000D01*
X226435256Y-35221298D01*
X226435256Y-35221298D01*
G37*
G36*
X135630256Y-35221298D02*
X135736579Y-35242447D01*
X136037042Y-35366903D01*
X136169668Y-35455521D01*
X136307454Y-35547587D01*
X136537413Y-35777546D01*
X136718098Y-36047960D01*
X136737718Y-36095328D01*
X136822281Y-36299479D01*
X136842553Y-36348422D01*
X136906000Y-36667389D01*
X136906000Y-36992611D01*
X136842553Y-37311578D01*
X136718098Y-37612040D01*
X136537413Y-37882454D01*
X136307454Y-38112413D01*
X136307451Y-38112415D01*
X136037042Y-38293097D01*
X135736579Y-38417553D01*
X135630256Y-38438702D01*
X135417611Y-38481000D01*
X135092389Y-38481000D01*
X134879744Y-38438702D01*
X134773421Y-38417553D01*
X134472958Y-38293097D01*
X134202549Y-38112415D01*
X134202546Y-38112413D01*
X133972587Y-37882454D01*
X133791902Y-37612040D01*
X133667447Y-37311578D01*
X133604000Y-36992611D01*
X133604000Y-36667389D01*
X133667447Y-36348422D01*
X133687720Y-36299479D01*
X133772282Y-36095328D01*
X133791902Y-36047960D01*
X133972587Y-35777546D01*
X134202546Y-35547587D01*
X134340332Y-35455521D01*
X134472958Y-35366903D01*
X134773421Y-35242447D01*
X134879744Y-35221298D01*
X135092389Y-35179000D01*
X135417611Y-35179000D01*
X135630256Y-35221298D01*
X135630256Y-35221298D01*
G37*
G36*
X183867527Y-35318736D02*
X183967410Y-35338604D01*
X184249674Y-35455521D01*
X184503705Y-35625259D01*
X184719741Y-35841295D01*
X184889479Y-36095326D01*
X185006396Y-36377590D01*
X185066000Y-36677240D01*
X185066000Y-36982760D01*
X185006396Y-37282410D01*
X184889479Y-37564674D01*
X184719741Y-37818705D01*
X184503705Y-38034741D01*
X184249674Y-38204479D01*
X183967410Y-38321396D01*
X183867527Y-38341264D01*
X183667762Y-38381000D01*
X183362238Y-38381000D01*
X183162473Y-38341264D01*
X183062590Y-38321396D01*
X182780326Y-38204479D01*
X182526295Y-38034741D01*
X182310259Y-37818705D01*
X182140521Y-37564674D01*
X182023604Y-37282410D01*
X181964000Y-36982760D01*
X181964000Y-36677240D01*
X182023604Y-36377590D01*
X182140521Y-36095326D01*
X182310259Y-35841295D01*
X182526295Y-35625259D01*
X182780326Y-35455521D01*
X183062590Y-35338604D01*
X183162473Y-35318736D01*
X183362238Y-35279000D01*
X183667762Y-35279000D01*
X183867527Y-35318736D01*
X183867527Y-35318736D01*
G37*
G36*
X179986000Y-38381000D02*
X176884000Y-38381000D01*
X176884000Y-35279000D01*
X179986000Y-35279000D01*
X179986000Y-38381000D01*
X179986000Y-38381000D01*
G37*
G36*
X152117527Y-33413736D02*
X152217410Y-33433604D01*
X152499674Y-33550521D01*
X152753705Y-33720259D01*
X152969741Y-33936295D01*
X153139479Y-34190326D01*
X153256396Y-34472590D01*
X153316000Y-34772240D01*
X153316000Y-35077760D01*
X153256396Y-35377410D01*
X153139479Y-35659674D01*
X152969741Y-35913705D01*
X152753705Y-36129741D01*
X152499674Y-36299479D01*
X152217410Y-36416396D01*
X152117527Y-36436264D01*
X151917762Y-36476000D01*
X151612238Y-36476000D01*
X151412473Y-36436264D01*
X151312590Y-36416396D01*
X151030326Y-36299479D01*
X150776295Y-36129741D01*
X150560259Y-35913705D01*
X150390521Y-35659674D01*
X150273604Y-35377410D01*
X150214000Y-35077760D01*
X150214000Y-34772240D01*
X150273604Y-34472590D01*
X150390521Y-34190326D01*
X150560259Y-33936295D01*
X150776295Y-33720259D01*
X151030326Y-33550521D01*
X151312590Y-33433604D01*
X151412473Y-33413736D01*
X151612238Y-33374000D01*
X151917762Y-33374000D01*
X152117527Y-33413736D01*
X152117527Y-33413736D01*
G37*
G36*
X209902527Y-33413736D02*
X210002410Y-33433604D01*
X210284674Y-33550521D01*
X210538705Y-33720259D01*
X210754741Y-33936295D01*
X210924479Y-34190326D01*
X211041396Y-34472590D01*
X211101000Y-34772240D01*
X211101000Y-35077760D01*
X211041396Y-35377410D01*
X210924479Y-35659674D01*
X210754741Y-35913705D01*
X210538705Y-36129741D01*
X210284674Y-36299479D01*
X210002410Y-36416396D01*
X209902527Y-36436264D01*
X209702762Y-36476000D01*
X209397238Y-36476000D01*
X209197473Y-36436264D01*
X209097590Y-36416396D01*
X208815326Y-36299479D01*
X208561295Y-36129741D01*
X208345259Y-35913705D01*
X208175521Y-35659674D01*
X208058604Y-35377410D01*
X207999000Y-35077760D01*
X207999000Y-34772240D01*
X208058604Y-34472590D01*
X208175521Y-34190326D01*
X208345259Y-33936295D01*
X208561295Y-33720259D01*
X208815326Y-33550521D01*
X209097590Y-33433604D01*
X209197473Y-33413736D01*
X209397238Y-33374000D01*
X209702762Y-33374000D01*
X209902527Y-33413736D01*
X209902527Y-33413736D01*
G37*
M02*
