G04 #@! TF.GenerationSoftware,KiCad,Pcbnew,5.0.2+dfsg1-1*
G04 #@! TF.CreationDate,2019-07-14T15:39:51+02:00*
G04 #@! TF.ProjectId,classD,636c6173-7344-42e6-9b69-6361645f7063,1.0*
G04 #@! TF.SameCoordinates,Original*
G04 #@! TF.FileFunction,Legend,Bot*
G04 #@! TF.FilePolarity,Positive*
%FSLAX46Y46*%
G04 Gerber Fmt 4.6, Leading zero omitted, Abs format (unit mm)*
G04 Created by KiCad (PCBNEW 5.0.2+dfsg1-1) date So 14 Jul 2019 15:39:51 CEST*
%MOMM*%
%LPD*%
G01*
G04 APERTURE LIST*
%ADD10C,0.120000*%
%ADD11C,0.150000*%
G04 APERTURE END LIST*
D10*
G04 #@! TO.C,C12*
X216669252Y-101548000D02*
X216146748Y-101548000D01*
X216669252Y-100128000D02*
X216146748Y-100128000D01*
G04 #@! TO.C,C13*
X216660252Y-96572000D02*
X216137748Y-96572000D01*
X216660252Y-97992000D02*
X216137748Y-97992000D01*
G04 #@! TO.C,C14*
X215190000Y-89669252D02*
X215190000Y-89146748D01*
X216610000Y-89669252D02*
X216610000Y-89146748D01*
G04 #@! TO.C,C15*
X219150000Y-89660252D02*
X219150000Y-89137748D01*
X217730000Y-89660252D02*
X217730000Y-89137748D01*
G04 #@! TO.C,C18*
X205478748Y-71680000D02*
X206001252Y-71680000D01*
X205478748Y-73100000D02*
X206001252Y-73100000D01*
G04 #@! TO.C,C19*
X205478748Y-69925000D02*
X206001252Y-69925000D01*
X205478748Y-68505000D02*
X206001252Y-68505000D01*
G04 #@! TO.C,C20*
X214070000Y-76818748D02*
X214070000Y-77341252D01*
X212650000Y-76818748D02*
X212650000Y-77341252D01*
G04 #@! TO.C,C21*
X216610000Y-76818748D02*
X216610000Y-77341252D01*
X215190000Y-76818748D02*
X215190000Y-77341252D01*
G04 #@! TO.C,C24*
X193023748Y-72950000D02*
X193546252Y-72950000D01*
X193023748Y-74370000D02*
X193546252Y-74370000D01*
G04 #@! TO.C,C25*
X158733748Y-74370000D02*
X159256252Y-74370000D01*
X158733748Y-72950000D02*
X159256252Y-72950000D01*
G04 #@! TO.C,C26*
X154580000Y-67125436D02*
X154580000Y-68329564D01*
X152760000Y-67125436D02*
X152760000Y-68329564D01*
G04 #@! TO.C,C27*
X188574000Y-67125436D02*
X188574000Y-68329564D01*
X190394000Y-67125436D02*
X190394000Y-68329564D01*
G04 #@! TO.C,C28*
X197223748Y-61670000D02*
X197746252Y-61670000D01*
X197223748Y-60250000D02*
X197746252Y-60250000D01*
G04 #@! TO.C,C29*
X162933748Y-60250000D02*
X163456252Y-60250000D01*
X162933748Y-61670000D02*
X163456252Y-61670000D01*
G04 #@! TO.C,C30*
X197223748Y-62790000D02*
X197746252Y-62790000D01*
X197223748Y-64210000D02*
X197746252Y-64210000D01*
G04 #@! TO.C,C31*
X162924748Y-64210000D02*
X163447252Y-64210000D01*
X162924748Y-62790000D02*
X163447252Y-62790000D01*
G04 #@! TO.C,C32*
X224080000Y-96893748D02*
X224080000Y-97416252D01*
X225500000Y-96893748D02*
X225500000Y-97416252D01*
G04 #@! TO.C,C33*
X221540000Y-97416252D02*
X221540000Y-96893748D01*
X222960000Y-97416252D02*
X222960000Y-96893748D01*
G04 #@! TO.C,C35*
X204545000Y-89796252D02*
X204545000Y-89273748D01*
X203125000Y-89796252D02*
X203125000Y-89273748D01*
G04 #@! TO.C,C36*
X195909000Y-85233252D02*
X195909000Y-84710748D01*
X194489000Y-85233252D02*
X194489000Y-84710748D01*
G04 #@! TO.C,C48*
X138790000Y-47174564D02*
X138790000Y-45970436D01*
X140610000Y-47174564D02*
X140610000Y-45970436D01*
G04 #@! TO.C,C49*
X220070000Y-45535436D02*
X220070000Y-46739564D01*
X221890000Y-45535436D02*
X221890000Y-46739564D01*
G04 #@! TO.C,R6*
X179510000Y-70632064D02*
X179510000Y-66527936D01*
X176090000Y-70632064D02*
X176090000Y-66527936D01*
G04 #@! TO.C,R11*
X219000000Y-97416252D02*
X219000000Y-96893748D01*
X220420000Y-97416252D02*
X220420000Y-96893748D01*
G04 #@! TO.C,R17*
X200008748Y-90095000D02*
X200531252Y-90095000D01*
X200008748Y-91515000D02*
X200531252Y-91515000D01*
G04 #@! TO.C,R21*
X188647000Y-89669252D02*
X188647000Y-89146748D01*
X190067000Y-89669252D02*
X190067000Y-89146748D01*
G04 #@! TO.C,R30*
X145230436Y-48350000D02*
X146434564Y-48350000D01*
X145230436Y-45630000D02*
X146434564Y-45630000D01*
G04 #@! TO.C,R31*
X214880436Y-45630000D02*
X216084564Y-45630000D01*
X214880436Y-48350000D02*
X216084564Y-48350000D01*
D11*
G04 #@! TO.C,U6*
X159215000Y-71105000D02*
X157815000Y-71105000D01*
X159215000Y-66005000D02*
X163365000Y-66005000D01*
X159215000Y-71155000D02*
X163365000Y-71155000D01*
X159215000Y-66005000D02*
X159215000Y-66150000D01*
X163365000Y-66005000D02*
X163365000Y-66150000D01*
X163365000Y-71155000D02*
X163365000Y-71010000D01*
X159215000Y-71155000D02*
X159215000Y-71105000D01*
G04 #@! TO.C,U7*
X193505000Y-71155000D02*
X193505000Y-71105000D01*
X197655000Y-71155000D02*
X197655000Y-71010000D01*
X197655000Y-66005000D02*
X197655000Y-66150000D01*
X193505000Y-66005000D02*
X193505000Y-66150000D01*
X193505000Y-71155000D02*
X197655000Y-71155000D01*
X193505000Y-66005000D02*
X197655000Y-66005000D01*
X193505000Y-71105000D02*
X192105000Y-71105000D01*
G04 #@! TO.C,U8*
X190653000Y-84481000D02*
X190778000Y-84481000D01*
X190653000Y-87731000D02*
X190878000Y-87731000D01*
X193903000Y-87731000D02*
X193678000Y-87731000D01*
X193903000Y-84481000D02*
X193678000Y-84481000D01*
X190653000Y-84481000D02*
X190653000Y-87731000D01*
X193903000Y-84481000D02*
X193903000Y-87731000D01*
X190778000Y-84481000D02*
X190778000Y-83406000D01*
G04 #@! TO.C,C12*
X217050857Y-99545142D02*
X217098476Y-99592761D01*
X217241333Y-99640380D01*
X217336571Y-99640380D01*
X217479428Y-99592761D01*
X217574666Y-99497523D01*
X217622285Y-99402285D01*
X217669904Y-99211809D01*
X217669904Y-99068952D01*
X217622285Y-98878476D01*
X217574666Y-98783238D01*
X217479428Y-98688000D01*
X217336571Y-98640380D01*
X217241333Y-98640380D01*
X217098476Y-98688000D01*
X217050857Y-98735619D01*
X216098476Y-99640380D02*
X216669904Y-99640380D01*
X216384190Y-99640380D02*
X216384190Y-98640380D01*
X216479428Y-98783238D01*
X216574666Y-98878476D01*
X216669904Y-98926095D01*
X215717523Y-98735619D02*
X215669904Y-98688000D01*
X215574666Y-98640380D01*
X215336571Y-98640380D01*
X215241333Y-98688000D01*
X215193714Y-98735619D01*
X215146095Y-98830857D01*
X215146095Y-98926095D01*
X215193714Y-99068952D01*
X215765142Y-99640380D01*
X215146095Y-99640380D01*
G04 #@! TO.C,C13*
X217041857Y-95989142D02*
X217089476Y-96036761D01*
X217232333Y-96084380D01*
X217327571Y-96084380D01*
X217470428Y-96036761D01*
X217565666Y-95941523D01*
X217613285Y-95846285D01*
X217660904Y-95655809D01*
X217660904Y-95512952D01*
X217613285Y-95322476D01*
X217565666Y-95227238D01*
X217470428Y-95132000D01*
X217327571Y-95084380D01*
X217232333Y-95084380D01*
X217089476Y-95132000D01*
X217041857Y-95179619D01*
X216089476Y-96084380D02*
X216660904Y-96084380D01*
X216375190Y-96084380D02*
X216375190Y-95084380D01*
X216470428Y-95227238D01*
X216565666Y-95322476D01*
X216660904Y-95370095D01*
X215756142Y-95084380D02*
X215137095Y-95084380D01*
X215470428Y-95465333D01*
X215327571Y-95465333D01*
X215232333Y-95512952D01*
X215184714Y-95560571D01*
X215137095Y-95655809D01*
X215137095Y-95893904D01*
X215184714Y-95989142D01*
X215232333Y-96036761D01*
X215327571Y-96084380D01*
X215613285Y-96084380D01*
X215708523Y-96036761D01*
X215756142Y-95989142D01*
G04 #@! TO.C,C14*
X214682342Y-88892142D02*
X214729961Y-88844523D01*
X214777580Y-88701666D01*
X214777580Y-88606428D01*
X214729961Y-88463571D01*
X214634723Y-88368333D01*
X214539485Y-88320714D01*
X214349009Y-88273095D01*
X214206152Y-88273095D01*
X214015676Y-88320714D01*
X213920438Y-88368333D01*
X213825200Y-88463571D01*
X213777580Y-88606428D01*
X213777580Y-88701666D01*
X213825200Y-88844523D01*
X213872819Y-88892142D01*
X214777580Y-89844523D02*
X214777580Y-89273095D01*
X214777580Y-89558809D02*
X213777580Y-89558809D01*
X213920438Y-89463571D01*
X214015676Y-89368333D01*
X214063295Y-89273095D01*
X214110914Y-90701666D02*
X214777580Y-90701666D01*
X213729961Y-90463571D02*
X214444247Y-90225476D01*
X214444247Y-90844523D01*
G04 #@! TO.C,C15*
X220447142Y-88756142D02*
X220494761Y-88708523D01*
X220542380Y-88565666D01*
X220542380Y-88470428D01*
X220494761Y-88327571D01*
X220399523Y-88232333D01*
X220304285Y-88184714D01*
X220113809Y-88137095D01*
X219970952Y-88137095D01*
X219780476Y-88184714D01*
X219685238Y-88232333D01*
X219590000Y-88327571D01*
X219542380Y-88470428D01*
X219542380Y-88565666D01*
X219590000Y-88708523D01*
X219637619Y-88756142D01*
X220542380Y-89708523D02*
X220542380Y-89137095D01*
X220542380Y-89422809D02*
X219542380Y-89422809D01*
X219685238Y-89327571D01*
X219780476Y-89232333D01*
X219828095Y-89137095D01*
X219542380Y-90613285D02*
X219542380Y-90137095D01*
X220018571Y-90089476D01*
X219970952Y-90137095D01*
X219923333Y-90232333D01*
X219923333Y-90470428D01*
X219970952Y-90565666D01*
X220018571Y-90613285D01*
X220113809Y-90660904D01*
X220351904Y-90660904D01*
X220447142Y-90613285D01*
X220494761Y-90565666D01*
X220542380Y-90470428D01*
X220542380Y-90232333D01*
X220494761Y-90137095D01*
X220447142Y-90089476D01*
G04 #@! TO.C,C18*
X206382857Y-74397142D02*
X206430476Y-74444761D01*
X206573333Y-74492380D01*
X206668571Y-74492380D01*
X206811428Y-74444761D01*
X206906666Y-74349523D01*
X206954285Y-74254285D01*
X207001904Y-74063809D01*
X207001904Y-73920952D01*
X206954285Y-73730476D01*
X206906666Y-73635238D01*
X206811428Y-73540000D01*
X206668571Y-73492380D01*
X206573333Y-73492380D01*
X206430476Y-73540000D01*
X206382857Y-73587619D01*
X205430476Y-74492380D02*
X206001904Y-74492380D01*
X205716190Y-74492380D02*
X205716190Y-73492380D01*
X205811428Y-73635238D01*
X205906666Y-73730476D01*
X206001904Y-73778095D01*
X204859047Y-73920952D02*
X204954285Y-73873333D01*
X205001904Y-73825714D01*
X205049523Y-73730476D01*
X205049523Y-73682857D01*
X205001904Y-73587619D01*
X204954285Y-73540000D01*
X204859047Y-73492380D01*
X204668571Y-73492380D01*
X204573333Y-73540000D01*
X204525714Y-73587619D01*
X204478095Y-73682857D01*
X204478095Y-73730476D01*
X204525714Y-73825714D01*
X204573333Y-73873333D01*
X204668571Y-73920952D01*
X204859047Y-73920952D01*
X204954285Y-73968571D01*
X205001904Y-74016190D01*
X205049523Y-74111428D01*
X205049523Y-74301904D01*
X205001904Y-74397142D01*
X204954285Y-74444761D01*
X204859047Y-74492380D01*
X204668571Y-74492380D01*
X204573333Y-74444761D01*
X204525714Y-74397142D01*
X204478095Y-74301904D01*
X204478095Y-74111428D01*
X204525714Y-74016190D01*
X204573333Y-73968571D01*
X204668571Y-73920952D01*
G04 #@! TO.C,C19*
X206382857Y-71222142D02*
X206430476Y-71269761D01*
X206573333Y-71317380D01*
X206668571Y-71317380D01*
X206811428Y-71269761D01*
X206906666Y-71174523D01*
X206954285Y-71079285D01*
X207001904Y-70888809D01*
X207001904Y-70745952D01*
X206954285Y-70555476D01*
X206906666Y-70460238D01*
X206811428Y-70365000D01*
X206668571Y-70317380D01*
X206573333Y-70317380D01*
X206430476Y-70365000D01*
X206382857Y-70412619D01*
X205430476Y-71317380D02*
X206001904Y-71317380D01*
X205716190Y-71317380D02*
X205716190Y-70317380D01*
X205811428Y-70460238D01*
X205906666Y-70555476D01*
X206001904Y-70603095D01*
X204954285Y-71317380D02*
X204763809Y-71317380D01*
X204668571Y-71269761D01*
X204620952Y-71222142D01*
X204525714Y-71079285D01*
X204478095Y-70888809D01*
X204478095Y-70507857D01*
X204525714Y-70412619D01*
X204573333Y-70365000D01*
X204668571Y-70317380D01*
X204859047Y-70317380D01*
X204954285Y-70365000D01*
X205001904Y-70412619D01*
X205049523Y-70507857D01*
X205049523Y-70745952D01*
X205001904Y-70841190D01*
X204954285Y-70888809D01*
X204859047Y-70936428D01*
X204668571Y-70936428D01*
X204573333Y-70888809D01*
X204525714Y-70841190D01*
X204478095Y-70745952D01*
G04 #@! TO.C,C20*
X212067142Y-76437142D02*
X212114761Y-76389523D01*
X212162380Y-76246666D01*
X212162380Y-76151428D01*
X212114761Y-76008571D01*
X212019523Y-75913333D01*
X211924285Y-75865714D01*
X211733809Y-75818095D01*
X211590952Y-75818095D01*
X211400476Y-75865714D01*
X211305238Y-75913333D01*
X211210000Y-76008571D01*
X211162380Y-76151428D01*
X211162380Y-76246666D01*
X211210000Y-76389523D01*
X211257619Y-76437142D01*
X211257619Y-76818095D02*
X211210000Y-76865714D01*
X211162380Y-76960952D01*
X211162380Y-77199047D01*
X211210000Y-77294285D01*
X211257619Y-77341904D01*
X211352857Y-77389523D01*
X211448095Y-77389523D01*
X211590952Y-77341904D01*
X212162380Y-76770476D01*
X212162380Y-77389523D01*
X211162380Y-78008571D02*
X211162380Y-78103809D01*
X211210000Y-78199047D01*
X211257619Y-78246666D01*
X211352857Y-78294285D01*
X211543333Y-78341904D01*
X211781428Y-78341904D01*
X211971904Y-78294285D01*
X212067142Y-78246666D01*
X212114761Y-78199047D01*
X212162380Y-78103809D01*
X212162380Y-78008571D01*
X212114761Y-77913333D01*
X212067142Y-77865714D01*
X211971904Y-77818095D01*
X211781428Y-77770476D01*
X211543333Y-77770476D01*
X211352857Y-77818095D01*
X211257619Y-77865714D01*
X211210000Y-77913333D01*
X211162380Y-78008571D01*
G04 #@! TO.C,C21*
X217958942Y-76319142D02*
X218006561Y-76271523D01*
X218054180Y-76128666D01*
X218054180Y-76033428D01*
X218006561Y-75890571D01*
X217911323Y-75795333D01*
X217816085Y-75747714D01*
X217625609Y-75700095D01*
X217482752Y-75700095D01*
X217292276Y-75747714D01*
X217197038Y-75795333D01*
X217101800Y-75890571D01*
X217054180Y-76033428D01*
X217054180Y-76128666D01*
X217101800Y-76271523D01*
X217149419Y-76319142D01*
X217149419Y-76700095D02*
X217101800Y-76747714D01*
X217054180Y-76842952D01*
X217054180Y-77081047D01*
X217101800Y-77176285D01*
X217149419Y-77223904D01*
X217244657Y-77271523D01*
X217339895Y-77271523D01*
X217482752Y-77223904D01*
X218054180Y-76652476D01*
X218054180Y-77271523D01*
X218054180Y-78223904D02*
X218054180Y-77652476D01*
X218054180Y-77938190D02*
X217054180Y-77938190D01*
X217197038Y-77842952D01*
X217292276Y-77747714D01*
X217339895Y-77652476D01*
G04 #@! TO.C,C24*
X197467457Y-74144142D02*
X197515076Y-74191761D01*
X197657933Y-74239380D01*
X197753171Y-74239380D01*
X197896028Y-74191761D01*
X197991266Y-74096523D01*
X198038885Y-74001285D01*
X198086504Y-73810809D01*
X198086504Y-73667952D01*
X198038885Y-73477476D01*
X197991266Y-73382238D01*
X197896028Y-73287000D01*
X197753171Y-73239380D01*
X197657933Y-73239380D01*
X197515076Y-73287000D01*
X197467457Y-73334619D01*
X197086504Y-73334619D02*
X197038885Y-73287000D01*
X196943647Y-73239380D01*
X196705552Y-73239380D01*
X196610314Y-73287000D01*
X196562695Y-73334619D01*
X196515076Y-73429857D01*
X196515076Y-73525095D01*
X196562695Y-73667952D01*
X197134123Y-74239380D01*
X196515076Y-74239380D01*
X195657933Y-73572714D02*
X195657933Y-74239380D01*
X195896028Y-73191761D02*
X196134123Y-73906047D01*
X195515076Y-73906047D01*
G04 #@! TO.C,C25*
X156065457Y-73458342D02*
X156113076Y-73505961D01*
X156255933Y-73553580D01*
X156351171Y-73553580D01*
X156494028Y-73505961D01*
X156589266Y-73410723D01*
X156636885Y-73315485D01*
X156684504Y-73125009D01*
X156684504Y-72982152D01*
X156636885Y-72791676D01*
X156589266Y-72696438D01*
X156494028Y-72601200D01*
X156351171Y-72553580D01*
X156255933Y-72553580D01*
X156113076Y-72601200D01*
X156065457Y-72648819D01*
X155684504Y-72648819D02*
X155636885Y-72601200D01*
X155541647Y-72553580D01*
X155303552Y-72553580D01*
X155208314Y-72601200D01*
X155160695Y-72648819D01*
X155113076Y-72744057D01*
X155113076Y-72839295D01*
X155160695Y-72982152D01*
X155732123Y-73553580D01*
X155113076Y-73553580D01*
X154208314Y-72553580D02*
X154684504Y-72553580D01*
X154732123Y-73029771D01*
X154684504Y-72982152D01*
X154589266Y-72934533D01*
X154351171Y-72934533D01*
X154255933Y-72982152D01*
X154208314Y-73029771D01*
X154160695Y-73125009D01*
X154160695Y-73363104D01*
X154208314Y-73458342D01*
X154255933Y-73505961D01*
X154351171Y-73553580D01*
X154589266Y-73553580D01*
X154684504Y-73505961D01*
X154732123Y-73458342D01*
G04 #@! TO.C,C26*
X152207142Y-67084642D02*
X152254761Y-67037023D01*
X152302380Y-66894166D01*
X152302380Y-66798928D01*
X152254761Y-66656071D01*
X152159523Y-66560833D01*
X152064285Y-66513214D01*
X151873809Y-66465595D01*
X151730952Y-66465595D01*
X151540476Y-66513214D01*
X151445238Y-66560833D01*
X151350000Y-66656071D01*
X151302380Y-66798928D01*
X151302380Y-66894166D01*
X151350000Y-67037023D01*
X151397619Y-67084642D01*
X151397619Y-67465595D02*
X151350000Y-67513214D01*
X151302380Y-67608452D01*
X151302380Y-67846547D01*
X151350000Y-67941785D01*
X151397619Y-67989404D01*
X151492857Y-68037023D01*
X151588095Y-68037023D01*
X151730952Y-67989404D01*
X152302380Y-67417976D01*
X152302380Y-68037023D01*
X151302380Y-68894166D02*
X151302380Y-68703690D01*
X151350000Y-68608452D01*
X151397619Y-68560833D01*
X151540476Y-68465595D01*
X151730952Y-68417976D01*
X152111904Y-68417976D01*
X152207142Y-68465595D01*
X152254761Y-68513214D01*
X152302380Y-68608452D01*
X152302380Y-68798928D01*
X152254761Y-68894166D01*
X152207142Y-68941785D01*
X152111904Y-68989404D01*
X151873809Y-68989404D01*
X151778571Y-68941785D01*
X151730952Y-68894166D01*
X151683333Y-68798928D01*
X151683333Y-68608452D01*
X151730952Y-68513214D01*
X151778571Y-68465595D01*
X151873809Y-68417976D01*
G04 #@! TO.C,C27*
X188021142Y-67084642D02*
X188068761Y-67037023D01*
X188116380Y-66894166D01*
X188116380Y-66798928D01*
X188068761Y-66656071D01*
X187973523Y-66560833D01*
X187878285Y-66513214D01*
X187687809Y-66465595D01*
X187544952Y-66465595D01*
X187354476Y-66513214D01*
X187259238Y-66560833D01*
X187164000Y-66656071D01*
X187116380Y-66798928D01*
X187116380Y-66894166D01*
X187164000Y-67037023D01*
X187211619Y-67084642D01*
X187211619Y-67465595D02*
X187164000Y-67513214D01*
X187116380Y-67608452D01*
X187116380Y-67846547D01*
X187164000Y-67941785D01*
X187211619Y-67989404D01*
X187306857Y-68037023D01*
X187402095Y-68037023D01*
X187544952Y-67989404D01*
X188116380Y-67417976D01*
X188116380Y-68037023D01*
X187116380Y-68370357D02*
X187116380Y-69037023D01*
X188116380Y-68608452D01*
G04 #@! TO.C,C28*
X198102457Y-59488342D02*
X198150076Y-59535961D01*
X198292933Y-59583580D01*
X198388171Y-59583580D01*
X198531028Y-59535961D01*
X198626266Y-59440723D01*
X198673885Y-59345485D01*
X198721504Y-59155009D01*
X198721504Y-59012152D01*
X198673885Y-58821676D01*
X198626266Y-58726438D01*
X198531028Y-58631200D01*
X198388171Y-58583580D01*
X198292933Y-58583580D01*
X198150076Y-58631200D01*
X198102457Y-58678819D01*
X197721504Y-58678819D02*
X197673885Y-58631200D01*
X197578647Y-58583580D01*
X197340552Y-58583580D01*
X197245314Y-58631200D01*
X197197695Y-58678819D01*
X197150076Y-58774057D01*
X197150076Y-58869295D01*
X197197695Y-59012152D01*
X197769123Y-59583580D01*
X197150076Y-59583580D01*
X196578647Y-59012152D02*
X196673885Y-58964533D01*
X196721504Y-58916914D01*
X196769123Y-58821676D01*
X196769123Y-58774057D01*
X196721504Y-58678819D01*
X196673885Y-58631200D01*
X196578647Y-58583580D01*
X196388171Y-58583580D01*
X196292933Y-58631200D01*
X196245314Y-58678819D01*
X196197695Y-58774057D01*
X196197695Y-58821676D01*
X196245314Y-58916914D01*
X196292933Y-58964533D01*
X196388171Y-59012152D01*
X196578647Y-59012152D01*
X196673885Y-59059771D01*
X196721504Y-59107390D01*
X196769123Y-59202628D01*
X196769123Y-59393104D01*
X196721504Y-59488342D01*
X196673885Y-59535961D01*
X196578647Y-59583580D01*
X196388171Y-59583580D01*
X196292933Y-59535961D01*
X196245314Y-59488342D01*
X196197695Y-59393104D01*
X196197695Y-59202628D01*
X196245314Y-59107390D01*
X196292933Y-59059771D01*
X196388171Y-59012152D01*
G04 #@! TO.C,C29*
X163914057Y-59767742D02*
X163961676Y-59815361D01*
X164104533Y-59862980D01*
X164199771Y-59862980D01*
X164342628Y-59815361D01*
X164437866Y-59720123D01*
X164485485Y-59624885D01*
X164533104Y-59434409D01*
X164533104Y-59291552D01*
X164485485Y-59101076D01*
X164437866Y-59005838D01*
X164342628Y-58910600D01*
X164199771Y-58862980D01*
X164104533Y-58862980D01*
X163961676Y-58910600D01*
X163914057Y-58958219D01*
X163533104Y-58958219D02*
X163485485Y-58910600D01*
X163390247Y-58862980D01*
X163152152Y-58862980D01*
X163056914Y-58910600D01*
X163009295Y-58958219D01*
X162961676Y-59053457D01*
X162961676Y-59148695D01*
X163009295Y-59291552D01*
X163580723Y-59862980D01*
X162961676Y-59862980D01*
X162485485Y-59862980D02*
X162295009Y-59862980D01*
X162199771Y-59815361D01*
X162152152Y-59767742D01*
X162056914Y-59624885D01*
X162009295Y-59434409D01*
X162009295Y-59053457D01*
X162056914Y-58958219D01*
X162104533Y-58910600D01*
X162199771Y-58862980D01*
X162390247Y-58862980D01*
X162485485Y-58910600D01*
X162533104Y-58958219D01*
X162580723Y-59053457D01*
X162580723Y-59291552D01*
X162533104Y-59386790D01*
X162485485Y-59434409D01*
X162390247Y-59482028D01*
X162199771Y-59482028D01*
X162104533Y-59434409D01*
X162056914Y-59386790D01*
X162009295Y-59291552D01*
G04 #@! TO.C,C30*
X198127857Y-65507142D02*
X198175476Y-65554761D01*
X198318333Y-65602380D01*
X198413571Y-65602380D01*
X198556428Y-65554761D01*
X198651666Y-65459523D01*
X198699285Y-65364285D01*
X198746904Y-65173809D01*
X198746904Y-65030952D01*
X198699285Y-64840476D01*
X198651666Y-64745238D01*
X198556428Y-64650000D01*
X198413571Y-64602380D01*
X198318333Y-64602380D01*
X198175476Y-64650000D01*
X198127857Y-64697619D01*
X197794523Y-64602380D02*
X197175476Y-64602380D01*
X197508809Y-64983333D01*
X197365952Y-64983333D01*
X197270714Y-65030952D01*
X197223095Y-65078571D01*
X197175476Y-65173809D01*
X197175476Y-65411904D01*
X197223095Y-65507142D01*
X197270714Y-65554761D01*
X197365952Y-65602380D01*
X197651666Y-65602380D01*
X197746904Y-65554761D01*
X197794523Y-65507142D01*
X196556428Y-64602380D02*
X196461190Y-64602380D01*
X196365952Y-64650000D01*
X196318333Y-64697619D01*
X196270714Y-64792857D01*
X196223095Y-64983333D01*
X196223095Y-65221428D01*
X196270714Y-65411904D01*
X196318333Y-65507142D01*
X196365952Y-65554761D01*
X196461190Y-65602380D01*
X196556428Y-65602380D01*
X196651666Y-65554761D01*
X196699285Y-65507142D01*
X196746904Y-65411904D01*
X196794523Y-65221428D01*
X196794523Y-64983333D01*
X196746904Y-64792857D01*
X196699285Y-64697619D01*
X196651666Y-64650000D01*
X196556428Y-64602380D01*
G04 #@! TO.C,C31*
X163828857Y-65507142D02*
X163876476Y-65554761D01*
X164019333Y-65602380D01*
X164114571Y-65602380D01*
X164257428Y-65554761D01*
X164352666Y-65459523D01*
X164400285Y-65364285D01*
X164447904Y-65173809D01*
X164447904Y-65030952D01*
X164400285Y-64840476D01*
X164352666Y-64745238D01*
X164257428Y-64650000D01*
X164114571Y-64602380D01*
X164019333Y-64602380D01*
X163876476Y-64650000D01*
X163828857Y-64697619D01*
X163495523Y-64602380D02*
X162876476Y-64602380D01*
X163209809Y-64983333D01*
X163066952Y-64983333D01*
X162971714Y-65030952D01*
X162924095Y-65078571D01*
X162876476Y-65173809D01*
X162876476Y-65411904D01*
X162924095Y-65507142D01*
X162971714Y-65554761D01*
X163066952Y-65602380D01*
X163352666Y-65602380D01*
X163447904Y-65554761D01*
X163495523Y-65507142D01*
X161924095Y-65602380D02*
X162495523Y-65602380D01*
X162209809Y-65602380D02*
X162209809Y-64602380D01*
X162305047Y-64745238D01*
X162400285Y-64840476D01*
X162495523Y-64888095D01*
G04 #@! TO.C,C32*
X225147142Y-99788742D02*
X225194761Y-99741123D01*
X225242380Y-99598266D01*
X225242380Y-99503028D01*
X225194761Y-99360171D01*
X225099523Y-99264933D01*
X225004285Y-99217314D01*
X224813809Y-99169695D01*
X224670952Y-99169695D01*
X224480476Y-99217314D01*
X224385238Y-99264933D01*
X224290000Y-99360171D01*
X224242380Y-99503028D01*
X224242380Y-99598266D01*
X224290000Y-99741123D01*
X224337619Y-99788742D01*
X224242380Y-100122076D02*
X224242380Y-100741123D01*
X224623333Y-100407790D01*
X224623333Y-100550647D01*
X224670952Y-100645885D01*
X224718571Y-100693504D01*
X224813809Y-100741123D01*
X225051904Y-100741123D01*
X225147142Y-100693504D01*
X225194761Y-100645885D01*
X225242380Y-100550647D01*
X225242380Y-100264933D01*
X225194761Y-100169695D01*
X225147142Y-100122076D01*
X224337619Y-101122076D02*
X224290000Y-101169695D01*
X224242380Y-101264933D01*
X224242380Y-101503028D01*
X224290000Y-101598266D01*
X224337619Y-101645885D01*
X224432857Y-101693504D01*
X224528095Y-101693504D01*
X224670952Y-101645885D01*
X225242380Y-101074457D01*
X225242380Y-101693504D01*
G04 #@! TO.C,C33*
X222708742Y-99788742D02*
X222756361Y-99741123D01*
X222803980Y-99598266D01*
X222803980Y-99503028D01*
X222756361Y-99360171D01*
X222661123Y-99264933D01*
X222565885Y-99217314D01*
X222375409Y-99169695D01*
X222232552Y-99169695D01*
X222042076Y-99217314D01*
X221946838Y-99264933D01*
X221851600Y-99360171D01*
X221803980Y-99503028D01*
X221803980Y-99598266D01*
X221851600Y-99741123D01*
X221899219Y-99788742D01*
X221803980Y-100122076D02*
X221803980Y-100741123D01*
X222184933Y-100407790D01*
X222184933Y-100550647D01*
X222232552Y-100645885D01*
X222280171Y-100693504D01*
X222375409Y-100741123D01*
X222613504Y-100741123D01*
X222708742Y-100693504D01*
X222756361Y-100645885D01*
X222803980Y-100550647D01*
X222803980Y-100264933D01*
X222756361Y-100169695D01*
X222708742Y-100122076D01*
X221803980Y-101074457D02*
X221803980Y-101693504D01*
X222184933Y-101360171D01*
X222184933Y-101503028D01*
X222232552Y-101598266D01*
X222280171Y-101645885D01*
X222375409Y-101693504D01*
X222613504Y-101693504D01*
X222708742Y-101645885D01*
X222756361Y-101598266D01*
X222803980Y-101503028D01*
X222803980Y-101217314D01*
X222756361Y-101122076D01*
X222708742Y-101074457D01*
G04 #@! TO.C,C35*
X205842142Y-88892142D02*
X205889761Y-88844523D01*
X205937380Y-88701666D01*
X205937380Y-88606428D01*
X205889761Y-88463571D01*
X205794523Y-88368333D01*
X205699285Y-88320714D01*
X205508809Y-88273095D01*
X205365952Y-88273095D01*
X205175476Y-88320714D01*
X205080238Y-88368333D01*
X204985000Y-88463571D01*
X204937380Y-88606428D01*
X204937380Y-88701666D01*
X204985000Y-88844523D01*
X205032619Y-88892142D01*
X204937380Y-89225476D02*
X204937380Y-89844523D01*
X205318333Y-89511190D01*
X205318333Y-89654047D01*
X205365952Y-89749285D01*
X205413571Y-89796904D01*
X205508809Y-89844523D01*
X205746904Y-89844523D01*
X205842142Y-89796904D01*
X205889761Y-89749285D01*
X205937380Y-89654047D01*
X205937380Y-89368333D01*
X205889761Y-89273095D01*
X205842142Y-89225476D01*
X204937380Y-90749285D02*
X204937380Y-90273095D01*
X205413571Y-90225476D01*
X205365952Y-90273095D01*
X205318333Y-90368333D01*
X205318333Y-90606428D01*
X205365952Y-90701666D01*
X205413571Y-90749285D01*
X205508809Y-90796904D01*
X205746904Y-90796904D01*
X205842142Y-90749285D01*
X205889761Y-90701666D01*
X205937380Y-90606428D01*
X205937380Y-90368333D01*
X205889761Y-90273095D01*
X205842142Y-90225476D01*
G04 #@! TO.C,C36*
X197206142Y-84329142D02*
X197253761Y-84281523D01*
X197301380Y-84138666D01*
X197301380Y-84043428D01*
X197253761Y-83900571D01*
X197158523Y-83805333D01*
X197063285Y-83757714D01*
X196872809Y-83710095D01*
X196729952Y-83710095D01*
X196539476Y-83757714D01*
X196444238Y-83805333D01*
X196349000Y-83900571D01*
X196301380Y-84043428D01*
X196301380Y-84138666D01*
X196349000Y-84281523D01*
X196396619Y-84329142D01*
X196301380Y-84662476D02*
X196301380Y-85281523D01*
X196682333Y-84948190D01*
X196682333Y-85091047D01*
X196729952Y-85186285D01*
X196777571Y-85233904D01*
X196872809Y-85281523D01*
X197110904Y-85281523D01*
X197206142Y-85233904D01*
X197253761Y-85186285D01*
X197301380Y-85091047D01*
X197301380Y-84805333D01*
X197253761Y-84710095D01*
X197206142Y-84662476D01*
X196301380Y-86138666D02*
X196301380Y-85948190D01*
X196349000Y-85852952D01*
X196396619Y-85805333D01*
X196539476Y-85710095D01*
X196729952Y-85662476D01*
X197110904Y-85662476D01*
X197206142Y-85710095D01*
X197253761Y-85757714D01*
X197301380Y-85852952D01*
X197301380Y-86043428D01*
X197253761Y-86138666D01*
X197206142Y-86186285D01*
X197110904Y-86233904D01*
X196872809Y-86233904D01*
X196777571Y-86186285D01*
X196729952Y-86138666D01*
X196682333Y-86043428D01*
X196682333Y-85852952D01*
X196729952Y-85757714D01*
X196777571Y-85710095D01*
X196872809Y-85662476D01*
G04 #@! TO.C,C48*
X141877142Y-45929642D02*
X141924761Y-45882023D01*
X141972380Y-45739166D01*
X141972380Y-45643928D01*
X141924761Y-45501071D01*
X141829523Y-45405833D01*
X141734285Y-45358214D01*
X141543809Y-45310595D01*
X141400952Y-45310595D01*
X141210476Y-45358214D01*
X141115238Y-45405833D01*
X141020000Y-45501071D01*
X140972380Y-45643928D01*
X140972380Y-45739166D01*
X141020000Y-45882023D01*
X141067619Y-45929642D01*
X141305714Y-46786785D02*
X141972380Y-46786785D01*
X140924761Y-46548690D02*
X141639047Y-46310595D01*
X141639047Y-46929642D01*
X141400952Y-47453452D02*
X141353333Y-47358214D01*
X141305714Y-47310595D01*
X141210476Y-47262976D01*
X141162857Y-47262976D01*
X141067619Y-47310595D01*
X141020000Y-47358214D01*
X140972380Y-47453452D01*
X140972380Y-47643928D01*
X141020000Y-47739166D01*
X141067619Y-47786785D01*
X141162857Y-47834404D01*
X141210476Y-47834404D01*
X141305714Y-47786785D01*
X141353333Y-47739166D01*
X141400952Y-47643928D01*
X141400952Y-47453452D01*
X141448571Y-47358214D01*
X141496190Y-47310595D01*
X141591428Y-47262976D01*
X141781904Y-47262976D01*
X141877142Y-47310595D01*
X141924761Y-47358214D01*
X141972380Y-47453452D01*
X141972380Y-47643928D01*
X141924761Y-47739166D01*
X141877142Y-47786785D01*
X141781904Y-47834404D01*
X141591428Y-47834404D01*
X141496190Y-47786785D01*
X141448571Y-47739166D01*
X141400952Y-47643928D01*
G04 #@! TO.C,C49*
X219517142Y-45494642D02*
X219564761Y-45447023D01*
X219612380Y-45304166D01*
X219612380Y-45208928D01*
X219564761Y-45066071D01*
X219469523Y-44970833D01*
X219374285Y-44923214D01*
X219183809Y-44875595D01*
X219040952Y-44875595D01*
X218850476Y-44923214D01*
X218755238Y-44970833D01*
X218660000Y-45066071D01*
X218612380Y-45208928D01*
X218612380Y-45304166D01*
X218660000Y-45447023D01*
X218707619Y-45494642D01*
X218945714Y-46351785D02*
X219612380Y-46351785D01*
X218564761Y-46113690D02*
X219279047Y-45875595D01*
X219279047Y-46494642D01*
X219612380Y-46923214D02*
X219612380Y-47113690D01*
X219564761Y-47208928D01*
X219517142Y-47256547D01*
X219374285Y-47351785D01*
X219183809Y-47399404D01*
X218802857Y-47399404D01*
X218707619Y-47351785D01*
X218660000Y-47304166D01*
X218612380Y-47208928D01*
X218612380Y-47018452D01*
X218660000Y-46923214D01*
X218707619Y-46875595D01*
X218802857Y-46827976D01*
X219040952Y-46827976D01*
X219136190Y-46875595D01*
X219183809Y-46923214D01*
X219231428Y-47018452D01*
X219231428Y-47208928D01*
X219183809Y-47304166D01*
X219136190Y-47351785D01*
X219040952Y-47399404D01*
G04 #@! TO.C,R6*
X180872380Y-68413333D02*
X180396190Y-68080000D01*
X180872380Y-67841904D02*
X179872380Y-67841904D01*
X179872380Y-68222857D01*
X179920000Y-68318095D01*
X179967619Y-68365714D01*
X180062857Y-68413333D01*
X180205714Y-68413333D01*
X180300952Y-68365714D01*
X180348571Y-68318095D01*
X180396190Y-68222857D01*
X180396190Y-67841904D01*
X179872380Y-69270476D02*
X179872380Y-69080000D01*
X179920000Y-68984761D01*
X179967619Y-68937142D01*
X180110476Y-68841904D01*
X180300952Y-68794285D01*
X180681904Y-68794285D01*
X180777142Y-68841904D01*
X180824761Y-68889523D01*
X180872380Y-68984761D01*
X180872380Y-69175238D01*
X180824761Y-69270476D01*
X180777142Y-69318095D01*
X180681904Y-69365714D01*
X180443809Y-69365714D01*
X180348571Y-69318095D01*
X180300952Y-69270476D01*
X180253333Y-69175238D01*
X180253333Y-68984761D01*
X180300952Y-68889523D01*
X180348571Y-68841904D01*
X180443809Y-68794285D01*
G04 #@! TO.C,R11*
X220314780Y-99788742D02*
X219838590Y-99455409D01*
X220314780Y-99217314D02*
X219314780Y-99217314D01*
X219314780Y-99598266D01*
X219362400Y-99693504D01*
X219410019Y-99741123D01*
X219505257Y-99788742D01*
X219648114Y-99788742D01*
X219743352Y-99741123D01*
X219790971Y-99693504D01*
X219838590Y-99598266D01*
X219838590Y-99217314D01*
X220314780Y-100741123D02*
X220314780Y-100169695D01*
X220314780Y-100455409D02*
X219314780Y-100455409D01*
X219457638Y-100360171D01*
X219552876Y-100264933D01*
X219600495Y-100169695D01*
X220314780Y-101693504D02*
X220314780Y-101122076D01*
X220314780Y-101407790D02*
X219314780Y-101407790D01*
X219457638Y-101312552D01*
X219552876Y-101217314D01*
X219600495Y-101122076D01*
G04 #@! TO.C,R17*
X197772257Y-91333580D02*
X198105590Y-90857390D01*
X198343685Y-91333580D02*
X198343685Y-90333580D01*
X197962733Y-90333580D01*
X197867495Y-90381200D01*
X197819876Y-90428819D01*
X197772257Y-90524057D01*
X197772257Y-90666914D01*
X197819876Y-90762152D01*
X197867495Y-90809771D01*
X197962733Y-90857390D01*
X198343685Y-90857390D01*
X196819876Y-91333580D02*
X197391304Y-91333580D01*
X197105590Y-91333580D02*
X197105590Y-90333580D01*
X197200828Y-90476438D01*
X197296066Y-90571676D01*
X197391304Y-90619295D01*
X196486542Y-90333580D02*
X195819876Y-90333580D01*
X196248447Y-91333580D01*
G04 #@! TO.C,R21*
X188056780Y-88714342D02*
X187580590Y-88381009D01*
X188056780Y-88142914D02*
X187056780Y-88142914D01*
X187056780Y-88523866D01*
X187104400Y-88619104D01*
X187152019Y-88666723D01*
X187247257Y-88714342D01*
X187390114Y-88714342D01*
X187485352Y-88666723D01*
X187532971Y-88619104D01*
X187580590Y-88523866D01*
X187580590Y-88142914D01*
X187152019Y-89095295D02*
X187104400Y-89142914D01*
X187056780Y-89238152D01*
X187056780Y-89476247D01*
X187104400Y-89571485D01*
X187152019Y-89619104D01*
X187247257Y-89666723D01*
X187342495Y-89666723D01*
X187485352Y-89619104D01*
X188056780Y-89047676D01*
X188056780Y-89666723D01*
X188056780Y-90619104D02*
X188056780Y-90047676D01*
X188056780Y-90333390D02*
X187056780Y-90333390D01*
X187199638Y-90238152D01*
X187294876Y-90142914D01*
X187342495Y-90047676D01*
G04 #@! TO.C,R30*
X146475357Y-49722380D02*
X146808690Y-49246190D01*
X147046785Y-49722380D02*
X147046785Y-48722380D01*
X146665833Y-48722380D01*
X146570595Y-48770000D01*
X146522976Y-48817619D01*
X146475357Y-48912857D01*
X146475357Y-49055714D01*
X146522976Y-49150952D01*
X146570595Y-49198571D01*
X146665833Y-49246190D01*
X147046785Y-49246190D01*
X146142023Y-48722380D02*
X145522976Y-48722380D01*
X145856309Y-49103333D01*
X145713452Y-49103333D01*
X145618214Y-49150952D01*
X145570595Y-49198571D01*
X145522976Y-49293809D01*
X145522976Y-49531904D01*
X145570595Y-49627142D01*
X145618214Y-49674761D01*
X145713452Y-49722380D01*
X145999166Y-49722380D01*
X146094404Y-49674761D01*
X146142023Y-49627142D01*
X144903928Y-48722380D02*
X144808690Y-48722380D01*
X144713452Y-48770000D01*
X144665833Y-48817619D01*
X144618214Y-48912857D01*
X144570595Y-49103333D01*
X144570595Y-49341428D01*
X144618214Y-49531904D01*
X144665833Y-49627142D01*
X144713452Y-49674761D01*
X144808690Y-49722380D01*
X144903928Y-49722380D01*
X144999166Y-49674761D01*
X145046785Y-49627142D01*
X145094404Y-49531904D01*
X145142023Y-49341428D01*
X145142023Y-49103333D01*
X145094404Y-48912857D01*
X145046785Y-48817619D01*
X144999166Y-48770000D01*
X144903928Y-48722380D01*
G04 #@! TO.C,R31*
X216125357Y-49722380D02*
X216458690Y-49246190D01*
X216696785Y-49722380D02*
X216696785Y-48722380D01*
X216315833Y-48722380D01*
X216220595Y-48770000D01*
X216172976Y-48817619D01*
X216125357Y-48912857D01*
X216125357Y-49055714D01*
X216172976Y-49150952D01*
X216220595Y-49198571D01*
X216315833Y-49246190D01*
X216696785Y-49246190D01*
X215792023Y-48722380D02*
X215172976Y-48722380D01*
X215506309Y-49103333D01*
X215363452Y-49103333D01*
X215268214Y-49150952D01*
X215220595Y-49198571D01*
X215172976Y-49293809D01*
X215172976Y-49531904D01*
X215220595Y-49627142D01*
X215268214Y-49674761D01*
X215363452Y-49722380D01*
X215649166Y-49722380D01*
X215744404Y-49674761D01*
X215792023Y-49627142D01*
X214220595Y-49722380D02*
X214792023Y-49722380D01*
X214506309Y-49722380D02*
X214506309Y-48722380D01*
X214601547Y-48865238D01*
X214696785Y-48960476D01*
X214792023Y-49008095D01*
G04 #@! TO.C,U6*
X162051904Y-71532380D02*
X162051904Y-72341904D01*
X162004285Y-72437142D01*
X161956666Y-72484761D01*
X161861428Y-72532380D01*
X161670952Y-72532380D01*
X161575714Y-72484761D01*
X161528095Y-72437142D01*
X161480476Y-72341904D01*
X161480476Y-71532380D01*
X160575714Y-71532380D02*
X160766190Y-71532380D01*
X160861428Y-71580000D01*
X160909047Y-71627619D01*
X161004285Y-71770476D01*
X161051904Y-71960952D01*
X161051904Y-72341904D01*
X161004285Y-72437142D01*
X160956666Y-72484761D01*
X160861428Y-72532380D01*
X160670952Y-72532380D01*
X160575714Y-72484761D01*
X160528095Y-72437142D01*
X160480476Y-72341904D01*
X160480476Y-72103809D01*
X160528095Y-72008571D01*
X160575714Y-71960952D01*
X160670952Y-71913333D01*
X160861428Y-71913333D01*
X160956666Y-71960952D01*
X161004285Y-72008571D01*
X161051904Y-72103809D01*
G04 #@! TO.C,U7*
X196341904Y-71532380D02*
X196341904Y-72341904D01*
X196294285Y-72437142D01*
X196246666Y-72484761D01*
X196151428Y-72532380D01*
X195960952Y-72532380D01*
X195865714Y-72484761D01*
X195818095Y-72437142D01*
X195770476Y-72341904D01*
X195770476Y-71532380D01*
X195389523Y-71532380D02*
X194722857Y-71532380D01*
X195151428Y-72532380D01*
G04 #@! TO.C,U8*
X189180380Y-85344095D02*
X189989904Y-85344095D01*
X190085142Y-85391714D01*
X190132761Y-85439333D01*
X190180380Y-85534571D01*
X190180380Y-85725047D01*
X190132761Y-85820285D01*
X190085142Y-85867904D01*
X189989904Y-85915523D01*
X189180380Y-85915523D01*
X189608952Y-86534571D02*
X189561333Y-86439333D01*
X189513714Y-86391714D01*
X189418476Y-86344095D01*
X189370857Y-86344095D01*
X189275619Y-86391714D01*
X189228000Y-86439333D01*
X189180380Y-86534571D01*
X189180380Y-86725047D01*
X189228000Y-86820285D01*
X189275619Y-86867904D01*
X189370857Y-86915523D01*
X189418476Y-86915523D01*
X189513714Y-86867904D01*
X189561333Y-86820285D01*
X189608952Y-86725047D01*
X189608952Y-86534571D01*
X189656571Y-86439333D01*
X189704190Y-86391714D01*
X189799428Y-86344095D01*
X189989904Y-86344095D01*
X190085142Y-86391714D01*
X190132761Y-86439333D01*
X190180380Y-86534571D01*
X190180380Y-86725047D01*
X190132761Y-86820285D01*
X190085142Y-86867904D01*
X189989904Y-86915523D01*
X189799428Y-86915523D01*
X189704190Y-86867904D01*
X189656571Y-86820285D01*
X189608952Y-86725047D01*
G04 #@! TD*
M02*
